<svg width="90" height="90" fill="none" xmlns="http://www.w3.org/2000/svg"><g clip-path="url(#clip0_1_8457)"><path d="M90 45C90 20.147 69.853 0 45 0S0 20.147 0 45c0 22.46 16.456 41.077 37.969 44.453V58.008H26.543V45h11.426v-9.914c0-11.278 6.718-17.508 16.997-17.508 4.922 0 10.073.879 10.073.879v11.074h-5.674c-5.59 0-7.334 3.47-7.334 7.032V45h12.48l-1.994 13.008H52.03v31.445C73.544 86.077 90 67.46 90 45z" fill="#954CED"/><path d="M62.517 58.008L64.512 45h-12.48v-8.438c0-3.558 1.743-7.03 7.333-7.03h5.674V18.456s-5.15-.879-10.073-.879c-10.279 0-16.997 6.23-16.997 17.508V45H26.543v13.008h11.426v31.445a45.49 45.49 0 0014.062 0V58.008h10.486z" fill="#fff"/></g><defs><clipPath id="clip0_1_8457"><rect width="90" height="90" rx="45" fill="#fff"/></clipPath></defs></svg>