<svg width="547" height="362" fill="none" xmlns="http://www.w3.org/2000/svg"><g clip-path="url(#clip0_1_8400)"><rect width="547" height="362" rx="30" fill="#F5F5F5"/><g opacity=".7"><path fill-rule="evenodd" clip-rule="evenodd" d="M535.688 112.62c5.42-1.376 10.915 1.961 12.195 7.404l20.666 87.907a9.999 9.999 0 01-5.472 11.334l-44.784 21.101a10.009 10.009 0 01-5.477.879l-21.761-2.664a10 10 0 01-8.539-7.723l-20.225-89.566a10 10 0 017.294-11.896l7.271-1.845 16.71-4.241 14.389-3.652 14.39-3.652 13.343-3.386z" fill="#A64CED"/><path d="M493.566 123.31c-2.127-8.381-3.596-25.85 7.544-28.677 11.14-2.827 18.798 13.071 21.235 21.373m-28.779 7.304l14.389-3.652m-14.389 3.652l-16.71 4.241m45.489-11.545l13.343-3.386c5.42-1.376 10.915 1.961 12.195 7.404l20.666 87.907a9.999 9.999 0 01-5.472 11.334l-44.784 21.101a10.009 10.009 0 01-5.477.879l-21.761-2.664a10 10 0 01-8.539-7.723l-20.225-89.566a10 10 0 017.294-11.896l7.271-1.845m45.489-11.545l-14.39 3.652m0 0c-3.969-12.975-15.033-38.16-27.533-35.099-12.499 3.061-7.585 29.937-3.566 42.992" stroke="#A64CED" stroke-width="2" stroke-linecap="round" stroke-linejoin="round"/><path d="M514.029 230.066l-5.547-19.932m-16.641-59.794l11.094 39.863" stroke="#fff" stroke-width="2" stroke-linecap="round" stroke-linejoin="round"/></g><g opacity=".7"><path fill-rule="evenodd" clip-rule="evenodd" d="M446.764 396.321c5.157 1.977 10.94-.601 12.917-5.758l21.997-57.382c1.977-5.157-.601-10.94-5.758-12.917l-10.2-3.91-11.165-4.28-11.164-4.279-10.118-3.879-.78-.299c-5.157-1.977-10.94.601-12.917 5.758l-21.997 57.382c-1.976 5.157.602 10.94 5.758 12.917l43.427 16.647z" fill="#FFAA4C"/><path d="M465.72 316.354l10.2 3.91c5.157 1.977 7.735 7.76 5.758 12.917l-21.997 57.382c-1.977 5.157-7.76 7.735-12.917 5.758l-43.427-16.647c-5.157-1.977-7.734-7.76-5.758-12.917l21.997-57.382c1.977-5.157 7.76-7.735 12.917-5.758l.78.299m32.447 12.438c1.977-7.245 3.365-22.559-6.897-25.853-10.262-3.293-14.564 10.157-15.432 17.294m22.329 8.559l-11.165-4.28m-11.164-4.279l11.164 4.279m-11.164-4.279l-10.118-3.879m21.282 8.158c3.9-9.913 9.399-30.433.198-33.21-9.201-2.777-18.154 15.544-21.48 25.052" stroke="#FFAA4C" stroke-width="2" stroke-linecap="round" stroke-linejoin="round"/></g><g opacity=".7"><path fill-rule="evenodd" clip-rule="evenodd" d="M111.991 381.52c-4.697 2.905-10.86 1.454-13.765-3.243L78 345.585c-2.905-4.697-1.454-10.86 3.243-13.765l4.263-2.638 7.296-4.513 7.295-4.514 6.611-4.09a7.775 7.775 0 0110.702 2.521l21.396 34.585c2.906 4.697 1.454 10.86-3.242 13.765l-23.573 14.584z" fill="#2FDBBC"/><path d="M85.506 329.182l-4.263 2.638c-4.697 2.905-6.148 9.068-3.243 13.765l20.226 32.692c2.905 4.697 9.068 6.148 13.765 3.243l23.573-14.584c4.696-2.905 6.148-9.068 3.242-13.765l-21.396-34.585a7.775 7.775 0 00-10.702-2.521v0m-21.202 13.117c-2.365-4.841-5.397-15.449 1.395-19.147 6.791-3.697 11.627 5.207 13.196 10.12m-14.59 9.027l7.294-4.513m7.296-4.514l-7.295 4.514m7.295-4.514l6.611-4.09m-13.906 8.604c-4.078-6.465-10.706-20.191-4.593-23.382 6.113-3.191 14.88 8.522 18.499 14.778" stroke="#2FDBBC" stroke-width="2" stroke-linecap="round" stroke-linejoin="round"/></g></g><defs><clipPath id="clip0_1_8400"><rect width="547" height="362" rx="30" fill="#fff"/></clipPath></defs></svg>