<svg width="733" height="362" fill="none" xmlns="http://www.w3.org/2000/svg"><g clip-path="url(#clip0_1_8343)"><rect width="733" height="362" rx="30" fill="#F5F5F5"/><path opacity=".7" d="M282 375c-6-72-104.5-109.154-192.252-98.151-85.154 10.677-111.797 66.797-79.292 75.769 21.044 5.809 55.682-32.251 48.614-86.772-7.068-54.52-90.66-59.819-115.255-35.008-24.594 24.811 22.531 61.999 40.017 27.544C2.92 220.771-3.65 132.228-64.376 136.963c-8.36 10.504-16.501 33.569 17.803 41.793 42.88 10.28 110.96-72.918 94.455-145.141C31.375-38.608-64.376-3.5-39.98 67.507" stroke="#A64CED" stroke-width="70"/><rect opacity=".7" x="14.97" y="87.222" width="169.189" height="339.449" rx="32.124" transform="rotate(-17.192 14.97 87.222)" fill="#000"/><g clip-path="url(#clip1_1_8343)"><rect x="21.668" y="90.754" width="158.481" height="328.741" rx="26.77" transform="rotate(-17.192 21.668 90.754)" fill="#fff"/><g clip-path="url(#clip2_1_8343)"><rect x="53.42" y="157.151" width="137.065" height="113.507" rx="21.416" transform="rotate(-17.192 53.42 157.151)" fill="#F9F9F9"/><path opacity=".7" d="M83.782 240.791l20.46-6.33" stroke="#2FDBBC" stroke-width="128.498" stroke-linecap="round"/><circle cx="83.375" cy="216.608" r="2.677" transform="rotate(7.34 83.375 216.608)" fill="#000"/><circle cx="106.225" cy="215.232" r="2.677" transform="rotate(7.34 106.225 215.232)" fill="#000"/><path d="M96.764 240.242c2.805 1.176 8.549-.508 4.604-6.012 8.695-2.691-.133-9.487-5.343-5.71m63.799 5.183c3.619-.545 6.1-1.84 7.422-3.301m-9.112-5.725c9.151-1.751 12.106 2.415 9.112 5.725m-30.537 22.912c13.78 15.62 14.043-19.316 13.794-26.993-.249-7.676-1.4-21.61 4.903-21.116 5.043.396 3.575 8.267 2.547 13.889 1.028-5.622 3.43-14.799 7.246-13.508 5.65 1.913 1.968 10.418-.23 14.448m-3.437 1.738c2.964-1.959 10.188-4.662 12.584.29 1.317 2.722.034 4.757-1.896 6.155m-4.974 2.185c1.376-.319 3.392-1.038 4.974-2.185m0 0c2.503 12.558 1.723 31.573-4.915 42.267-6.639 10.694-18.636 14.11-21.9 13.983" stroke="#000" stroke-width="2.142" stroke-linecap="round" stroke-linejoin="round"/><circle cx="160.996" cy="178.79" r="5.354" transform="rotate(-17.192 160.996 178.79)" stroke="#000" stroke-width="2.142"/><circle cx="194.268" cy="159.529" r="5.354" transform="rotate(-17.192 194.268 159.529)" stroke="#000" stroke-width="2.142"/><path d="M166.148 175.515l22.81-13.222m-29.702 10.871l-5.477-28.57m-8.269-1.364l17.086.878" stroke="#000" stroke-width="2.142" stroke-linecap="round" stroke-linejoin="round"/></g><g clip-path="url(#clip3_1_8343)"><rect x="44.241" y="127.485" width="25.7" height="25.7" rx="12.85" transform="rotate(-17.192 44.241 127.485)" fill="#DAFAF4"/><rect opacity=".7" x="48.039" y="139.76" width="25.7" height="19.275" rx="9.637" transform="rotate(-17.192 48.04 139.76)" fill="#2FDBBC"/><circle cx="59.815" cy="143.403" r=".535" transform="rotate(-17.192 59.815 143.403)" fill="#000"/><circle cx="64.93" cy="141.82" r=".535" transform="rotate(-17.192 64.93 141.82)" fill="#000"/></g><g clip-path="url(#clip4_1_8343)"><rect x="104.378" y="321.849" width="25.7" height="25.7" rx="12.85" transform="rotate(-17.192 104.378 321.849)" fill="#FFF5EB"/><rect opacity=".7" x="108.176" y="334.125" width="25.7" height="19.275" rx="9.637" transform="rotate(-17.192 108.176 334.125)" fill="#FDC280"/><circle cx="119.952" cy="337.767" r=".535" transform="rotate(-17.192 119.952 337.767)" fill="#000"/><circle cx="125.067" cy="336.185" r=".535" transform="rotate(-17.192 125.067 336.185)" fill="#000"/><circle cx="119.952" cy="337.767" r="1.392" transform="rotate(-17.192 119.952 337.767)" stroke="#000" stroke-width=".428"/><circle cx="125.067" cy="336.185" r="1.392" transform="rotate(-17.192 125.067 336.185)" stroke="#000" stroke-width=".428"/><path d="M121.486 337.293l2.046-.633" stroke="#000" stroke-width=".428" stroke-linecap="round" stroke-linejoin="round"/></g><path d="M80.691 133.928l-.311-1.007 2.578-.797c.49-.152.831-.414 1.02-.787.188-.381.218-.776.091-1.185a1.588 1.588 0 00-.416-.692 1.387 1.387 0 00-.707-.373 1.67 1.67 0 00-.87.055l-2.615.809-.312-1.007 2.443-.756c.41-.126.7-.333.871-.619.177-.297.203-.65.076-1.059-.127-.409-.35-.681-.67-.815-.321-.143-.691-.15-1.109-.02l-2.393.74-.312-1.006 2.419-.749c.556-.172 1.05-.213 1.482-.122.437.08.8.255 1.09.524.297.266.507.596.629.989a2.06 2.06 0 01-.009 1.32c-.139.42-.42.803-.841 1.149l-.016-.399c.609.027 1.127.194 1.554.501.432.297.732.715.9 1.255.138.45.153.89.044 1.318-.11.429-.34.818-.688 1.168-.344.339-.814.601-1.411.786l-2.517.779zm-.773.239l-2.636-8.519 1.154-.357 2.636 8.519-1.154.357zm9.834-2.908a2.736 2.736 0 01-1.387.079 2.468 2.468 0 01-1.165-.634c-.332-.319-.576-.732-.733-1.24l-1.049-3.388 1.105-.342 1.033 3.339c.099.319.238.581.418.786.186.193.404.319.654.376.251.057.52.041.806-.048.434-.134.732-.374.894-.72.16-.354.164-.773.015-1.256l-1.033-3.339 1.105-.342 1.048 3.388c.157.508.188.987.095 1.437a2.463 2.463 0 01-.603 1.182c-.303.327-.703.567-1.203.722zm7.054-2.183a2.78 2.78 0 01-1.286.103 2.356 2.356 0 01-1.788-1.519l-.543-1.755a2.306 2.306 0 01.01-1.227 2.37 2.37 0 01.624-1.027c.302-.3.67-.517 1.103-.651a2.738 2.738 0 011.562-.039c.517.135.97.395 1.357.777s.67.86.847 1.433a3.37 3.37 0 01.11 1.66 2.975 2.975 0 01-.681 1.408 2.802 2.802 0 01-1.315.837zm-.507-.986c.369-.114.665-.3.89-.558.225-.258.374-.56.447-.905a2.26 2.26 0 00-.078-1.119 2.23 2.23 0 00-.564-.955 1.844 1.844 0 00-.88-.495 1.86 1.86 0 00-1.037.039 1.883 1.883 0 00-.89.557c-.227.25-.372.55-.434.901s-.032.723.09 1.116c.119.385.299.706.54.963.246.246.535.412.867.498.34.083.69.069 1.05-.042zm-2.6 1.813l-2.712-8.765 1.105-.342 1.349 4.358.228 1.477.649 1.359.486 1.571-1.105.342zm7.157-2.214l-1.804-5.831 1.105-.342 1.804 5.831-1.105.342zm-1.612-7.168a.716.716 0 01-.564-.041.758.758 0 01-.356-.455.699.699 0 01.044-.552.692.692 0 01.44-.364.691.691 0 01.567.053c.171.09.288.234.348.43a.76.76 0 01-.037.577.717.717 0 01-.442.352z" fill="#B9B9B9"/><path d="M41.779 108.978l-2.659-8.593 1.412-.437 2.659 8.593-1.412.437zm-.17-3.983l-.398-1.289 4.37-1.352.398 1.289-4.37 1.352zm-1.12-3.621l-.399-1.289 4.579-1.417.399 1.289-4.58 1.417zm10.607 4.856a3.403 3.403 0 01-1.718.101 3.218 3.218 0 01-1.459-.76 3.218 3.218 0 01-.891-1.446 3.153 3.153 0 01-.077-1.684 3.16 3.16 0 01.75-1.443 3.17 3.17 0 011.422-.883c.548-.17 1.07-.193 1.566-.068.504.122.943.367 1.317.736.383.366.661.831.836 1.396.03.098.054.203.07.314.022.101.04.216.054.347l-4.837 1.496-.342-1.104 4.137-1.28-.367.597c-.127-.355-.29-.636-.49-.844a1.37 1.37 0 00-.702-.401c-.261-.063-.556-.043-.883.058a1.83 1.83 0 00-.828.498 1.57 1.57 0 00-.395.809c-.059.305-.03.641.083 1.009.114.369.288.669.521.902.234.233.51.385.828.457.315.064.65.041 1.001-.068a2.24 2.24 0 00.785-.418 1.82 1.82 0 00.519-.671l1.129.605a2.884 2.884 0 01-.808 1.084 3.477 3.477 0 01-1.221.661zm6.557-2.029a3.403 3.403 0 01-1.717.101 3.226 3.226 0 01-1.46-.759 3.224 3.224 0 01-.89-1.446 3.156 3.156 0 01-.078-1.685c.126-.55.376-1.03.75-1.443a3.173 3.173 0 011.422-.883c.549-.17 1.07-.192 1.566-.068a2.77 2.77 0 011.318.736c.382.366.66.831.835 1.396.03.098.054.203.07.314.023.101.04.217.054.347l-4.837 1.496-.342-1.104 4.137-1.28-.366.597c-.128-.355-.291-.636-.49-.843a1.366 1.366 0 00-.703-.402c-.26-.063-.555-.043-.883.058-.343.106-.62.273-.828.498a1.57 1.57 0 00-.395.809c-.058.305-.03.641.084 1.01.114.368.287.668.52.901.234.233.51.385.828.457.316.064.65.041 1.002-.068a2.24 2.24 0 00.785-.418c.229-.187.402-.411.518-.671l1.13.605a2.875 2.875 0 01-.809 1.084 3.477 3.477 0 01-1.221.661zm6.287-1.946a2.815 2.815 0 01-1.574.044 3.12 3.12 0 01-1.356-.778 3.445 3.445 0 01-.851-1.445c-.18-.58-.218-1.138-.114-1.673.11-.545.335-1.018.677-1.42a2.75 2.75 0 011.32-.865c.45-.14.877-.164 1.281-.074.41.08.77.255 1.078.527.308.272.528.621.66 1.047l.524 1.694c.132.425.147.838.047 1.236a2.24 2.24 0 01-.576 1.053 2.626 2.626 0 01-1.116.654zm-.174-1.345c.336-.103.604-.267.804-.49a1.66 1.66 0 00.391-.82 2.102 2.102 0 00-.08-.998 2.103 2.103 0 00-.497-.869 1.572 1.572 0 00-.783-.444 1.67 1.67 0 00-.944.037 1.71 1.71 0 00-.8.503c-.2.223-.331.493-.395.808a2.11 2.11 0 00.08.998c.11.352.275.641.498.868.23.225.493.377.786.456.3.069.613.053.94-.049zm3.291.247l-1.35.417-.49-1.583-.211-1.509-.674-1.351-1.36-4.395 1.35-.418 2.735 8.839z" fill="#E4E4E4"/><g clip-path="url(#clip5_1_8343)"><rect x="113.557" y="351.515" width="137.065" height="113.507" rx="21.416" transform="rotate(-17.192 113.557 351.515)" fill="#F9F9F9"/><path opacity=".7" d="M286.994 350.536l-65.471 20.257" stroke="#FFAA4C" stroke-width="103.147" stroke-linecap="round"/><path d="M220.275 356.736c-1.644 2.58-7.51 4.533-11.029 3.359" stroke="#000" stroke-width="2.142" stroke-linecap="round" stroke-linejoin="round"/><circle cx="194.137" cy="352.925" r="2.677" transform="rotate(-17.192 194.137 352.925)" fill="#000"/><circle cx="216.643" cy="345.961" r="2.677" transform="rotate(-17.192 216.643 345.961)" fill="#000"/><circle cx="196.536" cy="351.622" r="7.496" transform="rotate(-17.192 196.536 351.622)" stroke="#000" stroke-width="2.142"/><circle cx="219.042" cy="344.659" r="7.496" transform="rotate(-17.192 219.042 344.659)" stroke="#000" stroke-width="2.142"/><path d="M203.855 349.918l8.184-2.532m-77.023 28.178l-1.328-.301a4.282 4.282 0 00-5.126 3.227l-5.669 24.936a4.284 4.284 0 003.227 5.127l24.675 5.609a4.284 4.284 0 005.126-3.227l5.669-24.937a4.283 4.283 0 00-3.227-5.126l-6.309-1.434m-17.038-3.874c.489-4.575 2.672-13.451 7.495-12.355 4.824 1.097 4.003 10.283 2.99 14.739m-10.485-2.384l5.243 1.192m5.242 1.192l-5.242-1.192m5.242 1.192l6.553 1.49m-11.795-2.682c.528-4.75 3.065-13.969 8.984-12.844 5.92 1.126 4.341 10.819 2.811 15.526" stroke="#000" stroke-width="2.142" stroke-linecap="round" stroke-linejoin="round"/></g><path d="M140.828 328.293l-.311-1.007 2.578-.798c.491-.152.831-.414 1.021-.786.187-.381.217-.776.09-1.185a1.587 1.587 0 00-.415-.692 1.383 1.383 0 00-.708-.373 1.684 1.684 0 00-.871.054l-2.614.809-.312-1.006 2.443-.756c.409-.127.7-.333.871-.619.177-.297.202-.65.076-1.06-.127-.409-.35-.681-.669-.815-.322-.142-.692-.149-1.11-.02l-2.393.741-.312-1.007 2.419-.748c.556-.172 1.05-.213 1.482-.122.437.08.8.254 1.09.523.297.267.507.597.629.989.141.459.139.899-.009 1.321-.139.42-.419.803-.842 1.148l-.015-.398c.609.026 1.127.193 1.554.501.432.296.732.715.899 1.255.139.45.154.889.045 1.318-.11.428-.339.817-.688 1.168-.344.339-.814.601-1.411.786l-2.517.779zm-.773.239l-2.636-8.52 1.154-.357 2.636 8.52-1.154.357zm9.834-2.909a2.733 2.733 0 01-1.387.08 2.462 2.462 0 01-1.165-.635c-.332-.319-.576-.732-.733-1.239l-1.049-3.388 1.105-.342 1.033 3.339c.099.319.238.581.418.785.186.194.404.319.654.376.251.057.52.041.806-.047.434-.135.732-.375.894-.721.159-.354.164-.772.015-1.255l-1.033-3.339 1.104-.342 1.049 3.388c.157.507.188.986.095 1.437-.094.45-.295.844-.603 1.182-.303.326-.703.567-1.203.721zm7.054-2.182a2.766 2.766 0 01-1.286.102 2.378 2.378 0 01-1.087-.511 2.356 2.356 0 01-.701-1.007l-.543-1.756a2.297 2.297 0 01.01-1.227c.12-.395.328-.738.624-1.027a2.65 2.65 0 011.103-.65 2.748 2.748 0 011.562-.04c.517.136.969.395 1.357.778.387.382.669.859.846 1.432.178.573.215 1.127.111 1.661a2.985 2.985 0 01-.681 1.408 2.82 2.82 0 01-1.315.837zm-.507-.986c.369-.114.665-.3.89-.558.225-.258.374-.56.447-.905.07-.354.044-.727-.078-1.12a2.238 2.238 0 00-.564-.955 1.847 1.847 0 00-.88-.494 1.869 1.869 0 00-1.037.038c-.368.114-.665.3-.89.558-.227.25-.372.55-.434.901s-.032.723.09 1.116c.119.384.299.705.54.962.246.247.535.413.867.499.339.083.689.069 1.049-.042zm-2.6 1.813l-2.712-8.765 1.105-.342 1.349 4.358.228 1.476.649 1.36.486 1.571-1.105.342zm9.528-2.814a2.737 2.737 0 01-1.388.08 2.462 2.462 0 01-1.165-.635c-.332-.319-.576-.732-.733-1.239l-1.048-3.388 1.105-.342 1.033 3.339c.098.319.238.581.417.785.186.194.404.319.655.376.251.057.519.041.806-.047.433-.135.731-.375.893-.721.16-.354.165-.772.015-1.255l-1.033-3.339 1.105-.342 1.048 3.388c.157.507.189.986.095 1.437-.094.45-.295.844-.603 1.182-.302.326-.703.567-1.202.721z" fill="#B9B9B9"/><rect opacity=".7" x="81.022" y="86.961" width="42.833" height="10.708" rx="5.354" transform="rotate(-17.192 81.022 86.96)" fill="#000"/><path d="M93.402 282.808l-2.636-8.519 1.154-.357 2.635 8.519-1.153.357zm8.628-2.535c-.442.137-.87.171-1.286.102a2.355 2.355 0 01-1.788-1.518l-.543-1.755a2.31 2.31 0 01.01-1.228c.12-.395.328-.738.624-1.026.302-.3.67-.517 1.103-.651a2.748 2.748 0 011.562-.04c.517.136.969.395 1.357.778.387.382.669.86.847 1.433a3.37 3.37 0 01.11 1.66 2.985 2.985 0 01-.681 1.408 2.8 2.8 0 01-1.315.837zm-.507-.986c.369-.114.665-.3.89-.558.225-.258.374-.56.447-.905.07-.353.044-.726-.078-1.119a2.232 2.232 0 00-.564-.955 1.837 1.837 0 00-.879-.495 1.872 1.872 0 00-1.038.038c-.368.114-.665.3-.89.558-.227.25-.372.55-.434.901a2.36 2.36 0 00.09 1.116c.119.384.299.705.54.963.246.246.535.412.867.498.339.083.689.069 1.049-.042zm-2.6 1.813l-2.711-8.765 1.104-.342 1.349 4.358.228 1.476.65 1.36.485 1.571-1.105.342zm9.847-2.912a3.123 3.123 0 01-1.672.073 3.177 3.177 0 01-1.431-.754 3.199 3.199 0 01-.887-1.434 3.03 3.03 0 01-.066-1.647c.128-.542.38-1.019.755-1.431a3.129 3.129 0 011.421-.884 3.115 3.115 0 011.66-.069 3.049 3.049 0 011.439.738c.412.375.705.845.88 1.409a3.2 3.2 0 01.077 1.685 3.144 3.144 0 01-.767 1.434 3.105 3.105 0 01-1.409.88zm-.33-1.068c.368-.114.669-.301.902-.562.233-.26.386-.563.459-.908.07-.354.045-.723-.074-1.107a2.043 2.043 0 00-.569-.927 1.843 1.843 0 00-.888-.479 1.891 1.891 0 00-1.05.042 1.963 1.963 0 00-.902.562c-.236.252-.39.551-.462.896-.073.346-.051.707.066 1.083.119.385.307.703.564.955.255.244.552.408.892.491.339.083.693.068 1.062-.046zm6.964-.985a2.737 2.737 0 01-1.388.08 2.462 2.462 0 01-1.165-.635c-.331-.319-.576-.732-.733-1.239l-1.048-3.388 1.105-.342 1.033 3.339c.099.319.238.581.418.785.185.194.403.319.654.376.251.057.519.041.806-.047.433-.135.731-.375.893-.721.16-.354.165-.772.015-1.255l-1.033-3.339 1.105-.342 1.048 3.388c.157.507.189.986.095 1.437-.094.45-.295.844-.603 1.182-.302.326-.703.567-1.202.721zm7.159.462c-.597.185-1.164.239-1.698.162a2.922 2.922 0 01-1.394-.591l.488-.944a2.46 2.46 0 001.06.425c.378.062.792.024 1.242-.115.597-.185 1.019-.49 1.264-.916.255-.42.301-.896.136-1.428l-.448-1.448-.21-1.374-.599-1.241-.475-1.534 1.105-.342 1.732 5.598c.172.556.192 1.084.059 1.582a2.735 2.735 0 01-.776 1.316c-.385.379-.88.663-1.486.85zm-.824-2.664a2.876 2.876 0 01-1.554.064 2.902 2.902 0 01-1.317-.736 3.24 3.24 0 01-.836-1.396c-.172-.556-.202-1.089-.091-1.599a2.91 2.91 0 01.671-1.351 2.805 2.805 0 011.315-.837 2.754 2.754 0 011.299-.106c.408.071.764.239 1.07.503.312.253.543.594.693 1.023l.479 1.546c.107.433.105.847-.007 1.24a2.21 2.21 0 01-.603 1.007 2.72 2.72 0 01-1.119.642zm-.102-1.112c.36-.111.651-.286.873-.525.23-.242.376-.525.437-.848.059-.332.03-.687-.087-1.063a2.062 2.062 0 00-.537-.91 1.654 1.654 0 00-.831-.469 1.895 1.895 0 00-1.033.051 1.956 1.956 0 00-.894.545c-.23.242-.383.531-.458.868a2.05 2.05 0 00.067 1.042c.114.368.293.672.537.91.252.236.543.392.872.47.334.067.686.043 1.054-.071zm8.947-1.517l-1.052-3.4c-.136-.442-.388-.763-.755-.964-.367-.2-.771-.232-1.213-.095a1.62 1.62 0 00-.725.439 1.491 1.491 0 00-.373.708c-.06.269-.045.551.046.846l-.533-.117a2.43 2.43 0 01-.07-1.27c.09-.404.28-.759.571-1.065a2.442 2.442 0 011.096-.675 2.364 2.364 0 011.257-.066c.405.09.76.281 1.065.572.305.291.529.666.671 1.124l1.12 3.621-1.105.342zm-4.124 1.276l-2.712-8.765 1.105-.342 2.712 8.765-1.105.342zm7.549-2.336l-2.56-8.273 1.105-.342 2.56 8.273-1.105.342zm-2.929-4.38l-.311-1.006 3.977-1.231.312 1.007-3.978 1.23zm9.106 2.469l-1.804-5.831 1.105-.342 1.804 5.831-1.105.342zm3.94-1.219l-1.09-3.523c-.134-.434-.374-.732-.72-.894-.34-.172-.711-.197-1.112-.073a1.58 1.58 0 00-.671.396c-.177.181-.3.394-.368.639-.067.245-.057.511.032.797l-.523-.08c-.136-.442-.161-.856-.074-1.242.095-.388.282-.724.562-1.008a2.372 2.372 0 011.042-.631 2.351 2.351 0 011.188-.072c.392.076.732.249 1.022.518.297.266.516.625.655 1.075l1.162 3.756-1.105.342zm3.941-1.219l-1.09-3.523c-.134-.434-.374-.732-.72-.894-.341-.173-.707-.198-1.1-.077a1.66 1.66 0 00-.684.4 1.452 1.452 0 00-.367.638c-.068.246-.057.511.031.798l-.694-.027c-.115-.458-.115-.88-.001-1.265.12-.395.323-.736.611-1.023a2.423 2.423 0 011.042-.631 2.49 2.49 0 011.226-.084 2.14 2.14 0 011.033.515c.306.264.53.625.672 1.083l1.158 3.744-1.117.346zm4.551-1.354l-4.348-5.098 1.227-.38 3.303 4.022-.393.122.552-5.215 1.227-.38-.906 6.724-.662.205zm-.929 2.91l.628-4.055.963.94-.364 2.735-1.227.38zm6.98-4.702a3.63 3.63 0 01-.971.166 3.543 3.543 0 01-.912-.121 3.036 3.036 0 01-.817-.38l.492-.932c.294.196.6.316.919.361.316.037.646.002.99-.104.343-.107.592-.246.744-.419a.597.597 0 00.127-.591.6.6 0 00-.385-.419 1.737 1.737 0 00-.668-.116 12.92 12.92 0 00-.833.003 4.8 4.8 0 01-.844-.076 1.734 1.734 0 01-.745-.321c-.213-.167-.374-.426-.483-.778-.109-.352-.117-.682-.023-.988a1.73 1.73 0 01.525-.822c.268-.236.619-.42 1.053-.555.458-.141.889-.185 1.291-.13.408.044.776.19 1.104.438l-.491.933a1.71 1.71 0 00-.766-.301 1.92 1.92 0 00-.863.078c-.32.099-.547.232-.684.4a.533.533 0 00-.105.53.55.55 0 00.362.386c.18.061.4.091.66.092.268-.003.546-.003.833-.003.285-.007.566.018.844.076.278.057.525.174.74.349.224.173.392.439.503.799.17.549.108 1.043-.186 1.484-.286.438-.756.758-1.411.961zm6.086-1.883a3.295 3.295 0 01-1.693.093 3.151 3.151 0 01-1.443-.75 3.148 3.148 0 01-.887-1.434 3.197 3.197 0 01-.086-1.668 3.11 3.11 0 01.746-1.415 3.105 3.105 0 011.409-.88c.54-.167 1.053-.191 1.538-.072.493.116.922.356 1.285.719.371.36.642.815.812 1.363.025.082.049.173.071.274.02.092.036.204.05.334l-4.923 1.523-.285-.921 4.333-1.34-.294.481c-.122-.393-.294-.703-.517-.93a1.555 1.555 0 00-.787-.456c-.301-.077-.632-.06-.992.052a2.06 2.06 0 00-.919.553 1.75 1.75 0 00-.45.893c-.064.342-.034.714.09 1.115.126.409.32.744.579 1.004.258.253.564.418.92.496.354.07.727.044 1.12-.077.327-.102.608-.251.843-.449.243-.201.427-.446.552-.736l.936.504a2.83 2.83 0 01-.799 1.067 3.395 3.395 0 01-1.209.657zm3.842-1.323l-2.711-8.765 1.104-.342 2.712 8.765-1.105.342zm3.556-1.101l-2.073-6.702c-.135-.434-.157-.839-.067-1.217.086-.385.265-.723.534-1.013.277-.292.637-.506 1.078-.643.336-.103.644-.136.925-.097.281.038.558.136.831.294l-.504.936a1.119 1.119 0 00-.436-.148 1.114 1.114 0 00-.509.05c-.352.109-.594.296-.727.562-.125.262-.132.574-.021.934l2.074 6.703-1.105.341zm-2.929-4.38l-.311-1.006 4.395-1.36.311 1.007-4.395 1.359zm-68.772 43.448a2.879 2.879 0 01-1.57.055 3.077 3.077 0 01-1.37-.773 3.379 3.379 0 01-.846-1.433 3.375 3.375 0 01-.11-1.661 3.116 3.116 0 01.68-1.408c.35-.404.796-.689 1.336-.857a2.533 2.533 0 011.266-.082c.407.071.768.238 1.082.499a2.3 2.3 0 01.702 1.007l.543 1.755c.105.425.101.835-.01 1.228a2.28 2.28 0 01-.596 1.031c-.288.287-.657.5-1.107.639zm-.139-1.101c.549-.169.934-.49 1.155-.962.219-.48.239-1.011.059-1.592-.124-.401-.309-.725-.556-.971a1.68 1.68 0 00-.855-.503 1.898 1.898 0 00-1.05.043 1.958 1.958 0 00-.901.561 1.943 1.943 0 00-.443.917 2.25 2.25 0 00.082 1.091c.121.393.307.717.556.972.255.244.552.407.892.491.34.083.693.067 1.061-.047zm2.041.378l-.486-1.571-.232-1.489-.646-1.347-.44-1.424 1.117-.346 1.804 5.831-1.117.346zm6.85-2.119l-1.052-3.401c-.137-.442-.389-.763-.756-.963-.366-.201-.771-.232-1.213-.096a1.64 1.64 0 00-.725.44 1.497 1.497 0 00-.373.707c-.06.27-.044.552.047.846l-.534-.117a2.438 2.438 0 01-.07-1.269c.09-.405.281-.76.572-1.065a2.42 2.42 0 011.096-.675 2.165 2.165 0 011.268-.03c.412.115.772.322 1.08.621.306.291.52.637.644 1.038l1.121 3.622-1.105.342zm-4.125 1.276l-1.804-5.831 1.105-.342 1.804 5.831-1.105.342zm12.018-3.584a3.295 3.295 0 01-1.693.093 3.151 3.151 0 01-1.443-.75 3.158 3.158 0 01-.888-1.434 3.207 3.207 0 01-.085-1.668 3.11 3.11 0 01.746-1.415 3.1 3.1 0 011.409-.88c.54-.167 1.053-.191 1.538-.072.493.116.921.356 1.285.719.371.36.642.814.812 1.363a3.035 3.035 0 01.12.608l-4.922 1.523-.285-.921 4.333-1.34-.295.481c-.121-.393-.293-.703-.516-.93a1.555 1.555 0 00-.787-.456c-.301-.077-.632-.06-.992.052a2.06 2.06 0 00-.919.553 1.75 1.75 0 00-.45.893c-.064.342-.034.714.09 1.115.126.409.319.744.579 1.004.258.253.564.418.92.496.354.07.727.044 1.12-.077.327-.102.608-.251.843-.45.242-.2.427-.446.552-.735l.936.504a2.83 2.83 0 01-.799 1.067 3.395 3.395 0 01-1.209.657zm3.842-1.323l-2.712-8.765 1.105-.342 2.712 8.765-1.105.342zm5.46-1.555a3.294 3.294 0 01-1.693.093 3.145 3.145 0 01-1.442-.751 3.15 3.15 0 01-.888-1.433 3.21 3.21 0 01-.086-1.669 3.121 3.121 0 012.155-2.294c.541-.167 1.053-.191 1.538-.072.494.116.922.356 1.285.719.372.36.643.814.812 1.363a3.06 3.06 0 01.121.608l-4.922 1.523-.285-.921 4.333-1.341-.295.482c-.121-.393-.294-.703-.516-.93a1.56 1.56 0 00-.787-.456c-.302-.077-.633-.06-.993.052-.376.116-.682.3-.918.553a1.75 1.75 0 00-.45.892c-.065.343-.035.715.089 1.116.127.409.32.744.58 1.004.257.252.564.417.92.496.353.07.727.044 1.119-.078.328-.101.609-.251.843-.449.243-.2.427-.446.553-.736l.936.504c-.177.414-.444.77-.8 1.068-.347.296-.75.515-1.209.657zm6.545-2.025a3.2 3.2 0 01-1.685.077 3.188 3.188 0 01-1.43-.754 3.26 3.26 0 01-.872-1.426 3.206 3.206 0 01-.085-1.668 3.08 3.08 0 01.758-1.418 3.2 3.2 0 011.434-.888c.45-.139.894-.182 1.332-.129.435.044.841.183 1.218.416l-.509.965a1.774 1.774 0 00-.811-.274 2.134 2.134 0 00-.9.09 1.963 1.963 0 00-.902.562c-.236.252-.39.551-.463.896-.072.346-.049.711.07 1.095.119.385.306.699.561.943.255.244.552.408.892.491.339.083.693.068 1.061-.046a2.27 2.27 0 00.798-.422 2 2 0 00.523-.7l.952.513a2.89 2.89 0 01-.77 1.032 3.18 3.18 0 01-1.172.645zm4.128-1.412l-2.56-8.274 1.105-.342 2.56 8.274-1.105.342zm-2.929-4.38l-.311-1.007 3.977-1.23.312 1.006-3.978 1.231zm6.552 3.259l-1.804-5.831 1.105-.342 1.804 5.831-1.105.342zm.076-3.669l-.474-.055c-.231-.744-.242-1.391-.036-1.939.207-.548.634-.923 1.281-1.123a2.02 2.02 0 01.847-.087c.268.025.541.124.819.298l-.493.973a1.156 1.156 0 00-.492-.157 1.502 1.502 0 00-.543.074c-.409.126-.704.361-.885.704-.18.343-.189.78-.024 1.312zm4.864 2.141l-1.804-5.831 1.104-.342 1.805 5.831-1.105.342zm-1.613-7.168a.717.717 0 01-.564-.041.76.76 0 01-.356-.455.695.695 0 01.045-.552.692.692 0 01.438-.364.691.691 0 01.568.053c.172.09.288.234.349.43a.757.757 0 01-.037.576.716.716 0 01-.443.353zm7.048 5.621a3.2 3.2 0 01-1.685.077 3.175 3.175 0 01-1.43-.755 3.242 3.242 0 01-.872-1.425 3.197 3.197 0 01-.085-1.668 3.076 3.076 0 01.758-1.418 3.194 3.194 0 011.433-.888 3.18 3.18 0 011.332-.129c.436.044.842.183 1.219.416l-.509.965a1.762 1.762 0 00-.811-.274 2.134 2.134 0 00-.9.09 1.955 1.955 0 00-.902.562c-.236.252-.39.551-.463.896-.072.345-.049.71.07 1.095.119.385.306.699.561.943.254.244.552.407.891.491.34.083.694.068 1.062-.046.311-.097.577-.237.798-.422a2.01 2.01 0 00.523-.7l.952.513a2.89 2.89 0 01-.77 1.031 3.19 3.19 0 01-1.172.646zm7.749-2.398a3.636 3.636 0 01-.971.166 3.543 3.543 0 01-.912-.121 3.036 3.036 0 01-.817-.38l.492-.932c.294.196.6.316.919.361.316.037.646.002.99-.104.343-.107.592-.246.744-.419a.597.597 0 00.127-.591.6.6 0 00-.385-.419 1.74 1.74 0 00-.668-.116 13.69 13.69 0 00-.834.002c-.287 0-.568-.025-.843-.075a1.734 1.734 0 01-.745-.321c-.213-.167-.374-.426-.483-.778a1.66 1.66 0 01-.024-.989c.091-.315.267-.589.526-.821.268-.236.619-.42 1.053-.555.458-.141.888-.185 1.291-.13.408.044.776.19 1.104.438l-.492.933a1.701 1.701 0 00-.765-.301 1.926 1.926 0 00-.864.078c-.319.099-.547.232-.683.4a.533.533 0 00-.105.53.55.55 0 00.362.386c.18.061.4.091.66.092.268-.003.546-.003.833-.003.285-.007.566.018.844.076.278.057.525.174.74.349.224.173.392.439.503.799.17.549.108 1.043-.186 1.484-.286.438-.757.758-1.411.961zm6.049-1.872a3.2 3.2 0 01-1.685.078 3.185 3.185 0 01-1.43-.755 3.251 3.251 0 01-.872-1.425 3.207 3.207 0 01-.085-1.668 3.084 3.084 0 01.758-1.419c.383-.414.861-.71 1.434-.887.45-.139.894-.182 1.331-.13.436.045.842.184 1.219.417l-.509.964a1.76 1.76 0 00-.811-.273 2.134 2.134 0 00-.9.09 1.955 1.955 0 00-.902.562c-.236.252-.39.551-.463.896-.072.345-.049.71.07 1.095.119.384.306.699.561.943.255.244.552.407.891.491.34.083.694.067 1.062-.047.311-.096.577-.236.798-.421a2.01 2.01 0 00.523-.7l.952.512c-.174.395-.43.739-.77 1.032a3.166 3.166 0 01-1.172.645zm5.886-1.821a3.124 3.124 0 01-1.672.074 3.188 3.188 0 01-1.431-.755 3.201 3.201 0 01-.887-1.433 3.034 3.034 0 01-.066-1.648 3.135 3.135 0 012.176-2.314 3.101 3.101 0 011.659-.07 3.058 3.058 0 011.44.739c.411.374.705.844.879 1.409.178.573.203 1.134.078 1.684a3.154 3.154 0 01-.767 1.434 3.102 3.102 0 01-1.409.88zm-.331-1.068c.369-.114.669-.301.903-.561.233-.261.386-.564.458-.909.07-.353.046-.722-.073-1.107a2.057 2.057 0 00-.569-.927 1.841 1.841 0 00-.888-.478 1.89 1.89 0 00-1.05.042 1.961 1.961 0 00-.902.561c-.236.253-.39.552-.463.897-.072.345-.05.706.066 1.082.119.385.307.703.565.956.255.244.552.407.892.49.339.084.693.068 1.061-.046zm7.284-1.083a3.123 3.123 0 01-1.672.073 3.177 3.177 0 01-1.431-.754 3.199 3.199 0 01-.887-1.434 3.03 3.03 0 01-.066-1.647c.128-.542.38-1.019.754-1.431a3.127 3.127 0 011.422-.883 3.101 3.101 0 011.659-.07 3.056 3.056 0 011.44.738c.411.375.705.845.879 1.409a3.2 3.2 0 01.078 1.685 3.154 3.154 0 01-.767 1.434 3.11 3.11 0 01-1.409.88zm-.331-1.068c.369-.114.669-.301.903-.562.233-.26.386-.563.458-.908.07-.354.046-.723-.073-1.107a2.052 2.052 0 00-.569-.927 1.843 1.843 0 00-.888-.479 1.891 1.891 0 00-1.05.043 1.953 1.953 0 00-.902.561c-.236.252-.39.551-.463.896-.072.346-.05.707.066 1.083.119.385.308.703.565.955.255.244.552.408.892.491.339.083.693.068 1.061-.046zm5.298-.603l-2.56-8.274 1.105-.342 2.56 8.274-1.105.342zm-2.929-4.38l-.311-1.007 3.977-1.231.312 1.007-3.978 1.231zm9.111 2.601a3.302 3.302 0 01-1.692.094 3.153 3.153 0 01-1.443-.751 3.158 3.158 0 01-.888-1.434 3.197 3.197 0 01-.085-1.668 3.105 3.105 0 01.746-1.415 3.098 3.098 0 011.409-.879c.54-.168 1.052-.192 1.538-.073.493.117.921.356 1.285.719.371.36.642.815.811 1.363.026.082.049.173.072.274.019.092.036.204.049.334l-4.922 1.523-.285-.92 4.333-1.341-.295.481c-.121-.393-.293-.703-.516-.93a1.555 1.555 0 00-.787-.456c-.302-.077-.633-.059-.993.052a2.07 2.07 0 00-.918.553c-.236.253-.386.55-.45.893-.065.342-.035.714.089 1.115.127.41.32.744.58 1.005.258.252.564.417.92.495.354.07.727.044 1.12-.077.327-.101.608-.251.843-.449.242-.201.426-.446.552-.736l.936.504a2.842 2.842 0 01-.799 1.068 3.389 3.389 0 01-1.21.656zm3.843-1.323l-1.804-5.831 1.105-.342 1.804 5.831-1.105.342zm.076-3.669l-.475-.055c-.23-.744-.242-1.391-.035-1.939.207-.549.634-.923 1.28-1.123.295-.091.577-.12.848-.087.267.025.54.124.818.298l-.492.973a1.16 1.16 0 00-.493-.157 1.475 1.475 0 00-.542.074c-.409.126-.704.361-.885.704-.181.343-.189.78-.024 1.312z" fill="#B9B9B9"/><path d="M159.085 63.929l2.532 8.184m-5.358-2.826l8.184-2.532" stroke="#E4E4E4" stroke-width="1.606" stroke-linecap="round" stroke-linejoin="round"/></g><g clip-path="url(#clip6_1_8343)"><g clip-path="url(#clip7_1_8343)" opacity=".7"><path d="M248.654 84.5a2.402 2.402 0 01-1.6 2.285l-9.734 3.535-3.535 9.734a2.436 2.436 0 01-4.57 0l-3.535-9.734-9.734-3.535a2.435 2.435 0 01-1.153-3.677c.284-.408.686-.72 1.153-.893l9.734-3.535 3.535-9.734a2.439 2.439 0 014.57 0l3.535 9.734 9.734 3.535a2.41 2.41 0 011.6 2.285z" fill="#FFAA4C"/></g></g><g opacity=".7" clip-path="url(#clip8_1_8343)"><path d="M268.496 49.5a1.544 1.544 0 01-1.025 1.465l-6.241 2.265-2.265 6.24a1.562 1.562 0 01-2.93 0l-2.265-6.24-6.241-2.265a1.561 1.561 0 010-2.93l6.241-2.265 2.265-6.24a1.562 1.562 0 012.93 0l2.265 6.24 6.241 2.265a1.542 1.542 0 011.025 1.465z" fill="#FFAA4C"/></g></g><defs><clipPath id="clip0_1_8343"><rect width="733" height="362" rx="30" fill="#fff"/></clipPath><clipPath id="clip1_1_8343"><rect x="21.668" y="90.754" width="158.481" height="328.741" rx="26.77" transform="rotate(-17.192 21.668 90.754)" fill="#fff"/></clipPath><clipPath id="clip2_1_8343"><rect x="53.42" y="157.151" width="137.065" height="113.507" rx="21.416" transform="rotate(-17.192 53.42 157.151)" fill="#fff"/></clipPath><clipPath id="clip3_1_8343"><rect x="44.241" y="127.485" width="25.7" height="25.7" rx="12.85" transform="rotate(-17.192 44.241 127.485)" fill="#fff"/></clipPath><clipPath id="clip4_1_8343"><rect x="104.378" y="321.849" width="25.7" height="25.7" rx="12.85" transform="rotate(-17.192 104.378 321.849)" fill="#fff"/></clipPath><clipPath id="clip5_1_8343"><rect x="113.557" y="351.515" width="137.065" height="113.507" rx="21.416" transform="rotate(-17.192 113.557 351.515)" fill="#fff"/></clipPath><clipPath id="clip6_1_8343"><path fill="#fff" transform="translate(212 65)" d="M0 0h39v39H0z"/></clipPath><clipPath id="clip7_1_8343"><path fill="#fff" transform="translate(212 65)" d="M0 0h39v39H0z"/></clipPath><clipPath id="clip8_1_8343"><path fill="#fff" transform="translate(245 37)" d="M0 0h25v25H0z"/></clipPath></defs></svg>