<svg width="343" height="362" fill="none" xmlns="http://www.w3.org/2000/svg"><rect width="343" height="362" rx="20" fill="#F5F5F5"/><g clip-path="url(#clip0_1_8931)"><path opacity=".7" d="M168.317 418.981c-3.52-42.24-61.307-64.036-112.788-57.581-49.957 6.263-65.588 39.187-46.518 44.451 12.346 3.408 32.667-18.921 28.52-50.906-4.146-31.985-53.187-35.094-67.616-20.539-14.428 14.556 16.326 37.055 26.585 16.841 11.198-22.065 4.235-74.692-31.39-71.914-4.904 6.163-9.68 19.694 10.444 24.519 25.157 6.031 65.097-42.779 55.413-85.149-9.683-42.371-65.858-21.774-51.545 19.883" stroke="#A64CED" stroke-width="38.287"/><rect opacity=".7" x="20" y="235.477" width="114.624" height="229.974" rx="21.764" transform="rotate(-31.844 20 235.477)" fill="#000"/><g clip-path="url(#clip1_1_8931)"><rect x="24.995" y="236.645" width="107.369" height="222.719" rx="18.137" transform="rotate(-31.844 24.995 236.645)" fill="#fff"/><g clip-path="url(#clip2_1_8931)"><rect x="57.186" y="274.724" width="92.86" height="76.9" rx="14.509" transform="rotate(-31.844 57.186 274.724)" fill="#F9F9F9"/><path opacity=".7" d="M91.42 324.343l12.326-7.655" stroke="#2FDBBC" stroke-width="87.056" stroke-linecap="round"/><circle cx="87.01" cy="308.562" r="1.814" transform="rotate(-7.312 87.01 308.562)" fill="#000"/><circle cx="101.751" cy="303.744" r="1.814" transform="rotate(-7.312 101.751 303.744)" fill="#000"/><path d="M99.836 321.759c2.04.29 5.516-1.798 1.987-4.73 5.238-3.254-1.713-6.196-4.48-2.827m42.705-7.536c2.279-.977 3.683-2.251 4.299-3.435m-6.953-2.192c5.698-2.716 8.349-.491 6.953 2.192m-16.089 20.25c11.709 7.877 5.895-15.067 4.416-20.056-1.479-4.989-4.621-13.925-.405-14.681 3.373-.605 3.76 4.806 4.049 8.667-.289-3.861-.287-10.288 2.435-10.095 4.031.285 3.075 6.491 2.325 9.509m-1.954 1.728c1.606-1.792 5.878-4.801 8.297-1.966 1.33 1.558.838 3.112-.188 4.359m-2.886 2.285c.848-.446 2.046-1.262 2.886-2.285m0 0c3.793 7.802 6.54 20.399 4.022 28.546-2.519 8.147-9.797 12.443-11.959 12.919" stroke="#000" stroke-width="1.451" stroke-linecap="round" stroke-linejoin="round"/><circle cx="131.406" cy="270.472" r="3.627" transform="rotate(-31.844 131.406 270.472)" stroke="#000" stroke-width="1.451"/><circle cx="149.914" cy="252.145" r="3.627" transform="rotate(-31.844 149.914 252.145)" stroke="#000" stroke-width="1.451"/><path d="M134.222 267.443l12.685-12.576m-17.606 12.216l-8.486-17.788m-5.653.522l11.349-2.352" stroke="#000" stroke-width="1.451" stroke-linecap="round" stroke-linejoin="round"/></g><g clip-path="url(#clip3_1_8931)"><rect x="46.086" y="256.852" width="17.411" height="17.411" rx="8.706" transform="rotate(-31.844 46.086 256.852)" fill="#DAFAF4"/><rect opacity=".7" x="50.679" y="264.247" width="17.411" height="13.058" rx="6.529" transform="rotate(-31.844 50.679 264.247)" fill="#2FDBBC"/><circle cx="59.022" cy="264.617" r=".363" transform="rotate(-31.844 59.022 264.617)" fill="#000"/><circle cx="62.103" cy="262.703" r=".363" transform="rotate(-31.844 62.103 262.703)" fill="#000"/></g><path d="M70.979 254.663l-.377-.606 1.553-.965c.296-.184.474-.414.534-.691a1.05 1.05 0 00-.143-.792 1.078 1.078 0 00-.391-.382.937.937 0 00-.528-.123 1.134 1.134 0 00-.561.185l-1.576.978-.376-.607 1.472-.914c.246-.153.401-.338.464-.555.066-.225.022-.46-.131-.707-.154-.246-.346-.386-.579-.42-.235-.038-.479.021-.73.177l-1.442.896-.377-.606 1.457-.905c.335-.208.652-.32.95-.334a1.462 1.462 0 011.386.697c.172.276.245.565.221.867-.02.299-.137.598-.355.897l-.078-.259c.403-.087.772-.066 1.104.062.334.12.603.343.805.669.168.271.253.556.255.856a1.72 1.72 0 01-.251.883c-.167.281-.43.534-.79.757l-1.516.942zm-.466.289l-3.188-5.132.695-.432 3.188 5.133-.695.431zm5.948-3.591a1.866 1.866 0 01-.896.29 1.68 1.68 0 01-.873-.217 1.931 1.931 0 01-.693-.686l-1.267-2.042.665-.413 1.25 2.012c.119.192.255.34.408.443a.87.87 0 00.493.134c.174-.006.348-.062.52-.169.262-.163.416-.371.463-.626.043-.259-.025-.534-.206-.825l-1.25-2.012.666-.413 1.268 2.041c.19.306.293.614.309.926a1.68 1.68 0 01-.193.878 1.813 1.813 0 01-.664.679zm4.25-2.64a1.87 1.87 0 01-.827.288 1.618 1.618 0 01-.8-.149 1.605 1.605 0 01-.632-.54l-.657-1.057a1.565 1.565 0 01-.203-.807c.01-.28.088-.54.233-.78.146-.248.35-.453.611-.615.32-.199.66-.297 1.017-.294.363.001.703.093 1.023.277.32.185.586.449.8.794.215.345.334.702.357 1.07.024.368-.044.714-.205 1.039a1.904 1.904 0 01-.718.774zm-.502-.559a1.283 1.283 0 00.625-1.188 1.532 1.532 0 00-.243-.721 1.516 1.516 0 00-.533-.529 1.248 1.248 0 00-.661-.173 1.26 1.26 0 00-.674.203 1.27 1.27 0 00-.487.518c-.107.202-.15.424-.13.665.02.24.102.479.25.716.143.231.316.411.518.538.204.119.422.179.654.178a1.31 1.31 0 00.68-.207zm-1.394 1.634l-3.28-5.281.666-.413 1.631 2.625.403.929.658.78.588.946-.666.414zm4.312-2.678l-2.182-3.513.666-.413 2.182 3.512-.666.414zm-2.285-4.422a.485.485 0 01-.377.07.514.514 0 01-.311-.237.474.474 0 01-.066-.37.469.469 0 01.226-.314.47.47 0 01.38-.062c.129.03.23.104.303.222a.512.512 0 01.074.384.485.485 0 01-.23.307z" fill="#B9B9B9"/><path d="M41.198 244.978l-3.216-5.177.85-.528 3.216 5.176-.85.529zm-.794-2.582l-.482-.776 2.632-1.636.483.777-2.633 1.635zm-1.355-2.182l-.482-.776 2.758-1.713.482.776-2.758 1.713zm7.784 1.366a2.31 2.31 0 01-1.108.36 2.178 2.178 0 01-1.087-.247 2.184 2.184 0 01-.831-.795 2.138 2.138 0 01-.34-1.091c-.012-.382.07-.74.245-1.075.18-.337.44-.611.78-.822.33-.206.669-.31 1.015-.313a1.88 1.88 0 01.99.256c.313.175.575.432.787.772.036.059.07.124.1.194.032.063.063.135.094.218l-2.914 1.81-.413-.665 2.492-1.548-.138.454a1.595 1.595 0 00-.465-.469.925.925 0 00-.53-.143 1.125 1.125 0 00-.569.19 1.238 1.238 0 00-.457.468 1.067 1.067 0 00-.12.598c.014.21.09.425.228.647.137.222.303.389.495.502.193.112.4.165.621.158.218-.013.433-.085.645-.216.182-.114.33-.25.443-.409.118-.162.193-.338.225-.529l.843.204a1.958 1.958 0 01-.343.849c-.182.256-.412.47-.688.642zm3.95-2.454a2.3 2.3 0 01-1.108.361 2.19 2.19 0 01-1.086-.248 2.183 2.183 0 01-.832-.795 2.138 2.138 0 01-.34-1.091c-.011-.382.07-.74.245-1.074.18-.337.44-.612.78-.823.331-.205.67-.309 1.016-.313a1.88 1.88 0 01.99.257 2.158 2.158 0 01.886.966c.032.062.063.135.094.218l-2.913 1.81-.414-.666 2.493-1.548-.138.455a1.6 1.6 0 00-.466-.47.924.924 0 00-.53-.142 1.133 1.133 0 00-.568.189 1.24 1.24 0 00-.457.469 1.06 1.06 0 00-.121.597c.014.21.09.426.228.648.138.222.303.389.496.501.193.113.4.165.62.158.218-.012.433-.084.645-.216.183-.113.33-.249.443-.408.118-.163.193-.339.225-.53l.844.204a1.958 1.958 0 01-.344.849 2.347 2.347 0 01-.687.642zm3.788-2.352c-.32.199-.661.298-1.024.298a2.118 2.118 0 01-1.022-.277 2.346 2.346 0 01-.806-.802 2.304 2.304 0 01-.361-1.077 2.093 2.093 0 01.2-1.047c.157-.33.396-.594.717-.793.271-.168.547-.258.827-.268a1.518 1.518 0 011.41.734l.633 1.02c.16.257.24.524.242.803.008.276-.058.538-.197.788a1.788 1.788 0 01-.619.621zm-.344-.852a1.18 1.18 0 00.442-.459c.095-.189.134-.391.116-.605a1.427 1.427 0 00-.223-.641 1.428 1.428 0 00-.475-.484 1.071 1.071 0 00-.589-.156c-.206-.002-.41.06-.612.185a1.145 1.145 0 00-.558 1.065c.016.214.09.428.222.64.132.212.29.373.475.484.19.107.388.162.594.164.208-.006.41-.071.608-.193zm2.2-.403l-.814.505-.593-.954-.397-.952-.673-.771-1.645-2.647.814-.505 3.307 5.324z" fill="#E4E4E4"/><g clip-path="url(#clip4_1_8931)"><rect x="129.911" y="391.816" width="92.86" height="76.9" rx="14.509" transform="rotate(-31.844 129.911 391.816)" fill="#F9F9F9"/><path opacity=".7" d="M243.424 361.452l-39.441 24.497" stroke="#FFAA4C" stroke-width="69.881" stroke-linecap="round"/><circle cx="197.878" cy="369.245" r="5.078" transform="rotate(-31.844 197.878 369.245)" stroke="#000" stroke-width="1.451"/></g><path d="M143.704 371.755l-.376-.606 1.553-.965c.295-.183.474-.414.534-.69a1.05 1.05 0 00-.144-.792 1.077 1.077 0 00-.391-.383.934.934 0 00-.527-.123 1.148 1.148 0 00-.562.185l-1.575.978-.377-.606 1.472-.914c.247-.153.401-.338.465-.555.065-.225.021-.461-.132-.708-.153-.246-.346-.386-.578-.419-.236-.038-.479.021-.731.177l-1.442.895-.376-.606 1.456-.905c.336-.208.652-.319.951-.334a1.461 1.461 0 011.386.697c.171.276.245.565.221.867-.02.299-.138.598-.355.897l-.079-.259c.404-.087.772-.066 1.104.062.335.121.603.344.805.669.169.271.254.557.255.856.002.3-.082.594-.251.883-.166.282-.43.534-.79.758l-1.516.941zm-.466.29l-3.187-5.133.695-.431 3.187 5.132-.695.432zm5.948-3.592a1.856 1.856 0 01-.896.29 1.67 1.67 0 01-.872-.216 1.936 1.936 0 01-.693-.687l-1.268-2.041.666-.414 1.249 2.012c.119.192.256.34.408.443.155.095.32.14.494.134a1.04 1.04 0 00.52-.169c.261-.162.415-.371.462-.625.044-.26-.025-.535-.205-.826l-1.25-2.011.666-.414 1.268 2.041c.19.306.292.615.308.926a1.67 1.67 0 01-.192.878 1.819 1.819 0 01-.665.679zm4.25-2.639a1.887 1.887 0 01-.826.287 1.586 1.586 0 01-1.432-.689l-.657-1.057a1.565 1.565 0 01-.204-.806c.011-.28.089-.54.233-.78.147-.248.351-.454.612-.616.32-.199.659-.297 1.017-.293.362 0 .703.092 1.022.277.32.184.587.449.801.794.214.345.333.701.357 1.069.023.368-.045.715-.205 1.04a1.91 1.91 0 01-.718.774zm-.502-.56c.222-.138.385-.311.488-.518.103-.208.149-.431.138-.67a1.534 1.534 0 00-.243-.72 1.52 1.52 0 00-.534-.53 1.247 1.247 0 00-.661-.173 1.266 1.266 0 00-.673.203c-.222.138-.385.31-.488.518-.106.203-.15.424-.13.665.02.241.103.479.25.716.144.232.317.411.519.538.204.12.422.179.654.179.236-.004.463-.073.68-.208zm-1.393 1.634l-3.28-5.28.666-.414 1.63 2.626.403.928.658.78.588.947-.665.413zm5.763-3.477a1.846 1.846 0 01-.896.29 1.67 1.67 0 01-.873-.216 1.928 1.928 0 01-.693-.687l-1.267-2.041.665-.413 1.25 2.011c.119.192.255.34.408.443.155.095.319.14.493.135a1.04 1.04 0 00.52-.17c.262-.162.416-.37.463-.625.043-.259-.025-.535-.206-.826l-1.249-2.011.665-.413 1.268 2.041c.19.305.293.614.309.925.015.312-.049.604-.193.878a1.809 1.809 0 01-.664.679z" fill="#B9B9B9"/><rect opacity=".7" x="63.25" y="223.987" width="29.019" height="7.255" rx="3.627" transform="rotate(-31.844 63.25 223.987)" fill="#000"/><path d="M105.028 350.399l-3.188-5.132.695-.432 3.188 5.132-.695.432zm5.221-3.14a1.878 1.878 0 01-.826.287 1.604 1.604 0 01-.799-.149 1.605 1.605 0 01-.633-.54l-.656-1.057a1.558 1.558 0 01-.204-.806c.011-.28.088-.54.233-.781.146-.248.35-.453.612-.615.32-.199.659-.297 1.016-.293.363 0 .704.092 1.023.276.319.185.586.449.801.794.214.346.333.702.356 1.07.024.368-.044.714-.205 1.039a1.906 1.906 0 01-.718.775zm-.501-.56c.222-.138.384-.311.488-.518.103-.208.149-.431.137-.67a1.529 1.529 0 00-.242-.72 1.512 1.512 0 00-.534-.53 1.247 1.247 0 00-.661-.173 1.26 1.26 0 00-.674.203c-.221.138-.384.31-.487.518-.107.203-.15.424-.13.665.019.24.102.479.249.716.144.231.317.411.519.538.204.12.422.179.654.178.237-.003.464-.072.681-.207zm-1.394 1.634l-3.279-5.28.665-.414 1.631 2.626.403.928.658.78.588.946-.666.414zm5.955-3.596a2.113 2.113 0 01-1.083.334 2.153 2.153 0 01-1.067-.249 2.16 2.16 0 01-.827-.788 2.052 2.052 0 01-.326-1.068 2.154 2.154 0 01.25-1.067c.175-.334.435-.609.78-.823.34-.211.699-.321 1.076-.33a2.07 2.07 0 011.07.237c.334.175.607.433.818.773.214.345.327.709.339 1.091.009.377-.077.734-.257 1.072a2.103 2.103 0 01-.773.818zm-.399-.644c.222-.137.387-.312.495-.522.108-.211.157-.436.145-.675a1.519 1.519 0 00-.238-.713 1.402 1.402 0 00-.532-.51 1.246 1.246 0 00-.664-.161c-.232 0-.459.07-.681.207a1.338 1.338 0 00-.495.523 1.248 1.248 0 00-.149.667c.011.239.088.471.228.698.144.232.322.408.534.53a1.31 1.31 0 001.357-.044zm4.396-1.838a1.867 1.867 0 01-.896.29 1.68 1.68 0 01-.872-.217 1.928 1.928 0 01-.693-.687l-1.268-2.041.666-.413 1.249 2.011c.119.193.255.34.408.444a.88.88 0 00.494.134 1.05 1.05 0 00.52-.169c.261-.163.415-.371.462-.626.044-.259-.025-.534-.205-.825l-1.25-2.012.666-.413 1.268 2.041c.189.306.292.614.308.925a1.66 1.66 0 01-.193.878 1.81 1.81 0 01-.664.68zm4.772-.925c-.36.224-.722.356-1.086.398a1.982 1.982 0 01-1.015-.149l.158-.703c.257.094.513.126.768.098.258-.024.523-.12.794-.289.36-.223.584-.496.672-.817.095-.319.044-.638-.155-.959l-.542-.872-.374-.865-.605-.711-.574-.924.666-.413 2.094 3.372c.208.335.312.677.31 1.027.003.346-.091.678-.283.996a2.438 2.438 0 01-.828.811zm-.997-1.605c-.321.2-.657.302-1.008.309a1.971 1.971 0 01-.989-.257 2.185 2.185 0 01-.787-.772 2.097 2.097 0 01-.334-1.032 1.966 1.966 0 01.209-1.001c.158-.317.397-.575.718-.774.276-.172.554-.269.833-.292.279-.023.542.025.788.146.247.113.457.297.629.552l.579.932a1.6 1.6 0 01.208.813 1.507 1.507 0 01-.222.764c-.145.24-.353.444-.624.612zm-.257-.711a1.33 1.33 0 00.482-.494c.109-.198.156-.408.141-.631a1.523 1.523 0 00-.239-.681 1.41 1.41 0 00-.508-.505 1.127 1.127 0 00-.625-.165 1.298 1.298 0 00-.669.21 1.333 1.333 0 00-.492.511c-.11.198-.16.414-.152.648.011.225.085.449.223.671.137.222.307.39.508.504.205.112.423.165.652.159.23-.013.457-.089.679-.227zm5.604-2.528l-1.272-2.048c-.166-.266-.386-.434-.66-.502-.275-.069-.546-.02-.812.145-.177.11-.311.248-.4.412-.089.165-.13.341-.123.528a1.1 1.1 0 00.176.547l-.37.014a1.643 1.643 0 01-.264-.82 1.51 1.51 0 01.192-.796c.136-.255.337-.465.603-.63.266-.165.537-.252.813-.259.28-.01.546.054.796.192.25.139.46.346.632.622l1.355 2.182-.666.413zm-2.485 1.544l-3.279-5.281.665-.413 3.28 5.28-.666.414zm4.548-2.825l-3.095-4.985.665-.413 3.096 4.984-.666.414zm-2.67-2.369l-.377-.607 2.396-1.488.377.607-2.396 1.488zm6.391.058l-2.181-3.513.665-.414 2.182 3.513-.666.414zm2.374-1.475l-1.318-2.122c-.162-.262-.371-.416-.625-.462a.973.973 0 00-.742.142 1.075 1.075 0 00-.372.375.978.978 0 00-.131.481.95.95 0 00.157.517l-.356.037a1.615 1.615 0 01-.262-.801c-.004-.27.061-.523.196-.757.132-.239.323-.436.575-.592.246-.153.502-.237.767-.251.269-.017.522.038.758.165.24.123.445.321.613.592l1.406 2.263-.666.413zm2.374-1.474l-1.318-2.123c-.162-.261-.371-.415-.625-.462a.96.96 0 00-.734.138 1.129 1.129 0 00-.38.379.982.982 0 00-.131.482.953.953 0 00.157.517l-.46.101a1.605 1.605 0 01-.217-.828c.011-.28.086-.539.225-.776.137-.242.329-.439.575-.592.257-.16.52-.248.789-.265.27-.017.525.036.765.16.246.121.455.319.626.595l1.401 2.256-.673.418zm2.751-1.668l-3.724-2.596.74-.459 2.854 2.07-.237.147-.532-3.512.74-.46.558 4.562-.399.248zm-.11 2.067l-.283-2.765.792.45.23 1.856-.739.459zm3.769-4.278c-.197.123-.4.214-.608.275a2.379 2.379 0 01-.618.077 2.047 2.047 0 01-.601-.109l.163-.695c.226.078.448.104.664.079a1.61 1.61 0 00.631-.238c.207-.129.346-.263.416-.402a.404.404 0 00-.018-.409.402.402 0 00-.324-.208 1.183 1.183 0 00-.458.038 8.966 8.966 0 00-.546.144 3.267 3.267 0 01-.566.096 1.195 1.195 0 01-.543-.083c-.168-.073-.318-.216-.45-.428a1.114 1.114 0 01-.184-.644 1.17 1.17 0 01.203-.628c.136-.2.334-.382.595-.544a2.03 2.03 0 01.824-.307c.275-.041.542-.008.799.098l-.162.696a1.16 1.16 0 00-.554-.066c-.186.019-.37.086-.552.199-.193.12-.319.246-.38.379a.366.366 0 00.022.366.376.376 0 00.303.191c.129.009.279-.009.449-.053.176-.048.357-.096.546-.145.185-.053.374-.085.566-.095.192-.01.373.024.545.102.176.075.332.221.466.438.206.33.25.665.132 1.004-.112.336-.365.627-.76.872zm3.667-2.277c-.35.217-.715.334-1.094.351-.382.012-.74-.07-1.074-.245a2.135 2.135 0 01-.828-.787 2.178 2.178 0 01-.342-1.079 2.108 2.108 0 01.247-1.055c.175-.334.432-.607.773-.818.325-.202.657-.306.995-.311.344-.008.665.075.966.251.305.172.56.424.765.754.031.049.062.105.094.167.029.058.059.128.09.211l-2.966 1.842-.344-.555 2.61-1.621-.11.366a1.527 1.527 0 00-.498-.521 1.053 1.053 0 00-.594-.164 1.222 1.222 0 00-.642.204 1.391 1.391 0 00-.507.52 1.187 1.187 0 00-.142.662c.016.236.1.474.25.716.153.246.337.433.552.559.212.121.441.177.688.167.243-.015.484-.096.72-.243a1.6 1.6 0 00.476-.439c.124-.173.203-.365.236-.577l.7.17a1.915 1.915 0 01-.341.837 2.308 2.308 0 01-.68.638zm2.292-1.526l-3.28-5.28.666-.414 3.279 5.281-.665.413zm2.142-1.331l-2.508-4.037a1.565 1.565 0 01-.253-.786c-.009-.268.05-.52.177-.756.132-.239.331-.441.597-.606.202-.126.399-.2.589-.223a1.53 1.53 0 01.595.051l-.17.7a.733.733 0 00-.31-.022.742.742 0 00-.326.12c-.212.131-.339.295-.38.492-.037.194.012.399.147.616l2.507 4.038-.665.413zm-2.671-2.369l-.376-.606 2.647-1.644.377.606-2.648 1.644zm-37.547 40.4c-.32.199-.66.301-1.02.305-.362 0-.705-.091-1.03-.272a2.284 2.284 0 01-.8-.794 2.296 2.296 0 01-.357-1.07c-.019-.371.05-.717.205-1.039a1.92 1.92 0 01.728-.791 1.73 1.73 0 01.816-.271 1.566 1.566 0 011.428.682l.656 1.057c.142.261.21.53.204.806a1.541 1.541 0 01-.214.779c-.139.237-.345.44-.616.608zm-.279-.698c.33-.205.527-.481.592-.828.061-.353-.017-.704-.235-1.054a1.556 1.556 0 00-.531-.541 1.136 1.136 0 00-.646-.183c-.232.001-.459.07-.681.208a1.336 1.336 0 00-.495.522 1.328 1.328 0 00-.133.677c.017.236.097.47.241.701.147.237.324.417.531.542.209.116.432.172.669.169.236-.004.466-.075.688-.213zm1.402-.102l-.588-.946-.407-.936-.654-.773-.533-.857.673-.418 2.182 3.512-.673.418zm4.126-2.563l-1.272-2.048a1.06 1.06 0 00-.66-.502c-.275-.069-.545-.02-.812.145-.177.11-.31.248-.399.412-.09.165-.131.341-.124.528.007.187.066.369.176.547l-.37.014a1.653 1.653 0 01-.264-.82c-.01-.281.054-.546.193-.796.135-.255.336-.465.602-.63a1.47 1.47 0 01.827-.237c.289.005.561.079.814.222.25.138.45.329.6.57l1.355 2.182-.666.413zm-2.484 1.543l-2.182-3.512.665-.414 2.182 3.513-.665.413zm7.262-4.408a2.23 2.23 0 01-1.093.351 2.137 2.137 0 01-1.075-.244 2.135 2.135 0 01-.827-.788 2.178 2.178 0 01-.342-1.079 2.11 2.11 0 011.019-1.873c.326-.202.658-.306.996-.311a1.79 1.79 0 01.965.251c.306.172.561.424.766.754.031.049.062.105.094.167.028.058.058.128.09.211l-2.966 1.842-.344-.555 2.61-1.621-.111.366a1.527 1.527 0 00-.498-.521 1.047 1.047 0 00-.593-.164 1.222 1.222 0 00-.642.204 1.391 1.391 0 00-.507.52 1.188 1.188 0 00-.143.662c.017.236.1.474.25.716.153.246.338.433.552.559.212.121.442.177.688.167.244-.015.484-.096.721-.243.197-.122.356-.268.475-.438.125-.173.204-.366.236-.577l.7.17c-.045.301-.158.58-.341.836a2.283 2.283 0 01-.68.638zm2.292-1.526l-3.279-5.28.665-.414 3.28 5.281-.666.413zm3.313-1.955c-.35.218-.715.335-1.094.352-.382.011-.74-.07-1.074-.245a2.137 2.137 0 01-.828-.788 2.178 2.178 0 01-.342-1.079 2.11 2.11 0 01.247-1.055c.175-.334.432-.607.773-.818.325-.202.657-.306.995-.311.344-.008.665.076.966.251.305.173.56.424.765.754a2.059 2.059 0 01.184.378l-2.966 1.842-.344-.554 2.61-1.622-.11.366a1.536 1.536 0 00-.498-.521 1.06 1.06 0 00-.594-.164 1.222 1.222 0 00-.642.204 1.391 1.391 0 00-.507.52 1.189 1.189 0 00-.142.662c.016.236.1.475.25.716.153.247.337.433.552.559.212.121.441.177.688.167.243-.014.483-.095.72-.242.197-.123.356-.269.476-.439.124-.173.203-.366.236-.577l.7.17c-.046.301-.159.58-.341.837a2.305 2.305 0 01-.68.637zm3.942-2.448a2.169 2.169 0 01-1.091.339 2.157 2.157 0 01-1.067-.25 2.2 2.2 0 01-.815-.784 2.181 2.181 0 01-.342-1.079 2.088 2.088 0 01.254-1.06 2.16 2.16 0 01.788-.827c.271-.169.554-.273.85-.313.293-.046.583-.024.87.064l-.168.719a1.19 1.19 0 00-.578-.04 1.453 1.453 0 00-.575.213 1.324 1.324 0 00-.644 1.19c.011.238.089.474.233.705.144.232.32.406.529.522a1.301 1.301 0 001.357-.043c.187-.116.337-.254.45-.413.115-.167.189-.35.223-.548l.712.172a1.963 1.963 0 01-.328.809 2.162 2.162 0 01-.658.624zm2.464-1.633l-3.096-4.985.666-.413 3.096 4.984-.666.414zm-2.67-2.369l-.377-.607 2.396-1.488.377.606-2.396 1.489zm4.853 1.013l-2.182-3.513.666-.413 2.182 3.513-.666.413zm-.579-2.418l-.32.046c-.279-.449-.398-.871-.356-1.266.042-.394.257-.713.647-.955.177-.11.358-.177.54-.202.18-.03.376-.011.588.055l-.156.722a.778.778 0 00-.35-.018.99.99 0 00-.343.141.967.967 0 00-.459.613c-.06.256.01.544.209.864zm3.555.57l-2.182-3.513.666-.413 2.181 3.512-.665.414zm-2.286-4.422a.483.483 0 01-.376.07.517.517 0 01-.312-.237.476.476 0 01-.065-.37.47.47 0 01.225-.314.47.47 0 01.381-.062c.128.03.229.104.303.222a.514.514 0 01.074.384.483.483 0 01-.23.307zm5.583 2.476a2.163 2.163 0 01-1.091.34 2.165 2.165 0 01-1.067-.25 2.195 2.195 0 01-.815-.785 2.155 2.155 0 01-.342-1.078 2.088 2.088 0 01.254-1.06c.18-.337.442-.613.787-.827.271-.169.555-.273.851-.314.293-.045.583-.023.87.065l-.168.719a1.194 1.194 0 00-.579-.04 1.449 1.449 0 00-.574.213 1.324 1.324 0 00-.495.523 1.248 1.248 0 00-.15.667c.012.238.09.474.233.705.144.232.321.406.53.522a1.305 1.305 0 001.356-.043c.188-.116.338-.254.451-.413a1.36 1.36 0 00.223-.549l.712.173a1.976 1.976 0 01-.328.809 2.159 2.159 0 01-.658.623zm4.668-2.899a2.48 2.48 0 01-.608.275 2.423 2.423 0 01-.618.077 2.047 2.047 0 01-.601-.109l.163-.695c.226.078.447.104.664.079.214-.03.424-.11.631-.238.207-.129.346-.263.416-.402a.404.404 0 00-.018-.409.407.407 0 00-.324-.209 1.185 1.185 0 00-.458.039 8.29 8.29 0 00-.546.144c-.188.049-.377.08-.566.095a1.181 1.181 0 01-.543-.082c-.168-.073-.318-.216-.45-.428a1.125 1.125 0 01-.185-.644c.006-.222.074-.431.204-.629.136-.2.334-.381.595-.543.276-.172.551-.274.824-.307.275-.041.542-.008.799.098l-.162.696a1.173 1.173 0 00-.554-.067c-.186.02-.37.087-.552.2-.193.119-.319.246-.38.379a.364.364 0 00.022.366.376.376 0 00.303.191c.129.009.278-.009.449-.054l.546-.144c.185-.054.374-.085.566-.095.192-.01.373.024.545.102.176.075.332.221.466.438.206.33.25.665.132 1.004-.112.336-.365.627-.76.872zm3.644-2.263a2.168 2.168 0 01-1.09.339 2.152 2.152 0 01-1.067-.25 2.203 2.203 0 01-.816-.784 2.181 2.181 0 01-.342-1.079 2.088 2.088 0 01.254-1.06c.18-.337.443-.613.788-.827.271-.169.554-.273.851-.313.292-.046.582-.024.87.064l-.169.719a1.19 1.19 0 00-.578-.04 1.453 1.453 0 00-.575.213 1.324 1.324 0 00-.644 1.19c.011.238.089.474.233.705.144.232.32.406.529.522a1.301 1.301 0 001.357-.043c.187-.116.337-.254.45-.413.115-.167.19-.35.223-.548l.712.172a1.95 1.95 0 01-.328.809 2.15 2.15 0 01-.658.624zm3.546-2.203a2.124 2.124 0 01-2.15.085 2.164 2.164 0 01-.827-.787 2.055 2.055 0 01-.326-1.069 2.136 2.136 0 011.03-1.89c.34-.211.699-.321 1.076-.33a2.099 2.099 0 011.888 1.011c.214.345.327.708.339 1.09.009.377-.077.735-.257 1.072a2.096 2.096 0 01-.773.818zm-.399-.643c.222-.138.387-.312.495-.523a1.32 1.32 0 00.145-.674 1.512 1.512 0 00-.238-.713 1.387 1.387 0 00-.532-.51 1.256 1.256 0 00-.664-.162c-.232.001-.459.07-.681.208a1.324 1.324 0 00-.644 1.189c.011.239.088.472.228.699.144.231.322.408.534.529.209.116.432.173.669.169.237-.004.466-.074.688-.212zm4.588-1.959a2.115 2.115 0 01-1.083.335 2.153 2.153 0 01-1.067-.249 2.17 2.17 0 01-.828-.788 2.06 2.06 0 01-.325-1.068 2.15 2.15 0 01.249-1.067c.175-.335.435-.609.78-.823a2.11 2.11 0 011.076-.33c.379-.017.736.062 1.07.237.334.175.607.433.818.773.215.345.328.709.34 1.091a2.14 2.14 0 01-.257 1.071 2.103 2.103 0 01-.773.818zm-.4-.643c.222-.138.387-.312.496-.523.108-.21.156-.435.145-.674a1.519 1.519 0 00-.238-.713 1.394 1.394 0 00-.532-.51 1.246 1.246 0 00-.664-.161c-.232 0-.459.069-.681.207a1.324 1.324 0 00-.645 1.19c.012.238.088.471.229.698.144.232.322.408.534.529a1.3 1.3 0 001.356-.043zm3.37-1.303l-3.096-4.985.665-.413 3.096 4.984-.665.414zm-2.671-2.369l-.376-.607 2.396-1.488.376.606-2.396 1.489zm6.418.144c-.35.217-.715.334-1.094.351-.382.012-.74-.07-1.074-.245a2.128 2.128 0 01-.827-.788 2.155 2.155 0 01-.342-1.078 2.107 2.107 0 01.246-1.055c.175-.334.433-.607.773-.818.325-.203.657-.306.996-.311.343-.009.665.075.965.251.305.172.561.423.766.754a2.23 2.23 0 01.183.378l-2.965 1.842-.345-.555 2.611-1.621-.111.366a1.518 1.518 0 00-.498-.521 1.045 1.045 0 00-.594-.164 1.222 1.222 0 00-.642.204c-.226.14-.395.314-.507.519a1.199 1.199 0 00-.142.663c.017.235.1.474.25.715.153.247.337.433.552.559.212.122.441.177.688.168.244-.015.484-.096.721-.243.197-.122.355-.269.475-.439.125-.173.204-.365.236-.577l.7.17c-.045.301-.159.58-.341.837a2.296 2.296 0 01-.68.638zm2.292-1.526l-2.182-3.513.666-.414 2.182 3.513-.666.414zm-.579-2.418l-.32.045c-.279-.448-.398-.87-.356-1.265.042-.395.257-.713.647-.955a1.36 1.36 0 01.54-.202c.18-.03.376-.012.588.055l-.156.722a.793.793 0 00-.35-.019c-.11.021-.224.068-.343.141a.971.971 0 00-.459.614c-.06.256.01.544.209.864z" fill="#B9B9B9"/><path d="M110.47 195.513l3.062 4.93m-3.996-.934l4.93-3.062" stroke="#E4E4E4" stroke-width="1.088" stroke-linecap="round" stroke-linejoin="round"/></g><g clip-path="url(#clip5_1_8931)"><g clip-path="url(#clip6_1_8931)" opacity=".7"><path d="M201.693 217.704a1.555 1.555 0 01-1.034 1.477l-6.292 2.285-2.285 6.293a1.579 1.579 0 01-1.477 1.027 1.58 1.58 0 01-1.477-1.027l-2.285-6.293-6.292-2.285a1.577 1.577 0 01-1.028-1.477 1.58 1.58 0 011.028-1.477l6.292-2.285 2.285-6.292a1.57 1.57 0 011.477-1.027 1.575 1.575 0 011.477 1.027l2.285 6.292 6.292 2.285a1.55 1.55 0 011.034 1.477z" fill="#FFAA4C"/></g></g><g opacity=".7" clip-path="url(#clip7_1_8931)"><path d="M214.519 195.08a1.002 1.002 0 01-.663.947l-4.033 1.464-1.465 4.034a1.016 1.016 0 01-.947.659 1.011 1.011 0 01-.947-.659L205 197.491l-4.034-1.464a1.016 1.016 0 01-.659-.947 1.016 1.016 0 01.659-.947l4.034-1.464 1.464-4.034a1.016 1.016 0 01.947-.659 1.016 1.016 0 01.947.659l1.465 4.034 4.033 1.464a1.002 1.002 0 01.663.947z" fill="#FFAA4C"/></g></g><defs><clipPath id="clip0_1_8931"><path fill="#fff" transform="translate(0 169)" d="M0 0h343v193H0z"/></clipPath><clipPath id="clip1_1_8931"><rect x="24.995" y="236.645" width="107.369" height="222.719" rx="18.137" transform="rotate(-31.844 24.995 236.645)" fill="#fff"/></clipPath><clipPath id="clip2_1_8931"><rect x="57.186" y="274.724" width="92.86" height="76.9" rx="14.509" transform="rotate(-31.844 57.186 274.724)" fill="#fff"/></clipPath><clipPath id="clip3_1_8931"><rect x="46.086" y="256.852" width="17.411" height="17.411" rx="8.706" transform="rotate(-31.844 46.086 256.852)" fill="#fff"/></clipPath><clipPath id="clip4_1_8931"><rect x="129.911" y="391.816" width="92.86" height="76.9" rx="14.509" transform="rotate(-31.844 129.911 391.816)" fill="#fff"/></clipPath><clipPath id="clip5_1_8931"><path fill="#fff" transform="translate(178 205.099)" d="M0 0h25.21v25.21H0z"/></clipPath><clipPath id="clip6_1_8931"><path fill="#fff" transform="translate(178 205.099)" d="M0 0h25.21v25.21H0z"/></clipPath><clipPath id="clip7_1_8931"><path fill="#fff" transform="translate(199.331 187)" d="M0 0h16.16v16.16H0z"/></clipPath></defs></svg>