<svg width="343" height="333" fill="none" xmlns="http://www.w3.org/2000/svg"><rect width="343" height="333" rx="20" fill="#F5F5F5"/><g opacity=".7" clip-path="url(#clip0_1_8988)"><path fill-rule="evenodd" clip-rule="evenodd" d="M187.764 367.321c5.157 1.977 10.94-.601 12.917-5.758l21.997-57.382c1.977-5.157-.601-10.94-5.758-12.917l-10.2-3.91-11.165-4.28-11.164-4.279-10.118-3.879-.78-.299c-5.157-1.977-10.94.601-12.917 5.758l-21.997 57.382c-1.976 5.157.602 10.94 5.758 12.917l43.427 16.647z" fill="#FFAA4C"/><path d="M206.72 287.354l10.2 3.91c5.157 1.977 7.735 7.76 5.758 12.917l-21.997 57.382c-1.977 5.157-7.76 7.735-12.917 5.758l-43.427-16.647c-5.157-1.977-7.734-7.76-5.758-12.917l21.997-57.382c1.977-5.157 7.76-7.735 12.917-5.758l.78.299m32.447 12.438c1.977-7.245 3.365-22.559-6.897-25.853-10.262-3.293-14.564 10.157-15.432 17.294m22.329 8.559l-11.165-4.28m-11.164-4.279l11.164 4.279m-11.164-4.279l-10.118-3.879m21.282 8.158c3.9-9.913 9.399-30.433.198-33.21-9.201-2.777-18.154 15.544-21.48 25.052" stroke="#FFAA4C" stroke-width="2" stroke-linecap="round" stroke-linejoin="round"/></g><g opacity=".7" clip-path="url(#clip1_1_8988)"><path fill-rule="evenodd" clip-rule="evenodd" d="M49.99 352.52c-4.696 2.905-10.859 1.454-13.764-3.243L16 316.585c-2.905-4.697-1.454-10.86 3.243-13.765l4.263-2.638 7.296-4.513 7.295-4.514 6.611-4.09a7.775 7.775 0 0110.702 2.521l21.397 34.585c2.905 4.697 1.453 10.86-3.243 13.765L49.99 352.52z" fill="#2FDBBC"/><path d="M23.506 300.182l-4.263 2.638c-4.696 2.905-6.148 9.068-3.243 13.765l20.226 32.692c2.905 4.697 9.068 6.148 13.765 3.243l23.573-14.584c4.696-2.905 6.148-9.068 3.243-13.765L55.41 289.586a7.775 7.775 0 00-10.702-2.521v0m-21.202 13.117c-2.365-4.841-5.397-15.449 1.395-19.147 6.791-3.697 11.627 5.207 13.196 10.12m-14.59 9.027l7.294-4.513m7.296-4.514l-7.296 4.514m7.296-4.514l6.611-4.09m-13.906 8.604c-4.078-6.465-10.706-20.191-4.593-23.382 6.113-3.191 14.88 8.522 18.5 14.778" stroke="#2FDBBC" stroke-width="2" stroke-linecap="round" stroke-linejoin="round"/></g><g opacity=".7" clip-path="url(#clip2_1_8988)"><path fill-rule="evenodd" clip-rule="evenodd" d="M335.268 223.658a6.947 6.947 0 018.471 5.143l14.355 61.061a6.945 6.945 0 01-3.801 7.873l-31.107 14.657a6.955 6.955 0 01-3.805.611l-15.115-1.851a6.946 6.946 0 01-5.932-5.365l-14.048-62.213a6.947 6.947 0 015.067-8.263l5.05-1.281 11.607-2.946 9.995-2.537L326 226.01l9.268-2.352z" fill="#A64CED"/><path d="M306.01 231.084c-1.477-5.822-2.498-17.956 5.24-19.919 7.738-1.964 13.058 9.078 14.75 14.845m-19.99 5.074l9.995-2.537m-9.995 2.537l-11.607 2.946M326 226.01l9.268-2.352a6.947 6.947 0 018.471 5.143l14.355 61.061a6.945 6.945 0 01-3.801 7.873l-31.107 14.657a6.955 6.955 0 01-3.805.611l-15.115-1.851a6.946 6.946 0 01-5.932-5.365l-14.048-62.213a6.947 6.947 0 015.067-8.263l5.05-1.281M326 226.01l-9.995 2.537m0 0c-2.757-9.013-10.443-26.506-19.125-24.38-8.682 2.126-5.269 20.794-2.477 29.863" stroke="#A64CED" stroke-width="1.389" stroke-linecap="round" stroke-linejoin="round"/><path d="M320.224 305.237l-3.853-13.844m-11.559-41.534l7.706 27.689" stroke="#fff" stroke-width="1.389" stroke-linecap="round" stroke-linejoin="round"/></g><defs><clipPath id="clip0_1_8988"><path fill="#fff" transform="translate(135 247)" d="M0 0h93v86H0z"/></clipPath><clipPath id="clip1_1_8988"><path fill="#fff" transform="translate(10 269)" d="M0 0h72v64H0z"/></clipPath><clipPath id="clip2_1_8988"><path fill="#fff" transform="translate(282 201)" d="M0 0h61v116H0z"/></clipPath></defs></svg>