<svg width="733" height="362" fill="none" xmlns="http://www.w3.org/2000/svg"><rect width="733" height="362" rx="30" fill="#F5F5F5"/><path opacity=".7" d="M596.577 144.718v68.098" stroke="#A64CED" stroke-width="163.436" stroke-linecap="round"/><path d="M621.773 132.46c-2.043 8.172-15.663 18.387-25.877 18.387" stroke="#000" stroke-width="2.724" stroke-linecap="round" stroke-linejoin="round"/><path d="M645.237 178.086c-2.497 9.534-10.215 25.741-21.111 14.3-13.619-14.3-27.92-35.411-42.22-36.773-14.301-1.361-22.473 3.405-20.43 8.853 1.366 3.642 7.601 4.038 13.62 3.832m8.171-.427c-2.257.075-5.187.325-8.171.427m14.981 9.107c-2.724.953-6.129.988-8.171.953m-6.81-10.06c-10.215 1.616-8.853 9.788 6.81 10.06m0 0c-9.534 1.771-6.81 8.581 1.361 10.006m5.448-.063c-2.14.377-3.955.359-5.448.063m0 0c-5.025 3.299-3.64 8.472 3.405 9.1m5.448-.311c-2.083.368-3.902.449-5.448.311m0 0c15.663 33.738 52.436 47.358 78.994 21.481" stroke="#000" stroke-width="2.724" stroke-linecap="round"/><circle cx="575.466" cy="127.693" r="3.405" fill="#000"/><circle cx="604.068" cy="122.245" r="3.405" fill="#000"/><path d="M593.853 291.81v93.975H536.65l6.245-5.464a13.618 13.618 0 004.651-10.25v-94.605m51.755 16.344v93.975h57.202l-6.244-5.464a13.618 13.618 0 01-4.652-10.25v-94.605" stroke="#000" stroke-width="2.724" stroke-linecap="round" stroke-linejoin="round"/><path d="M530.329 132.871c-1.518 8.202-2.147 16.524-3.306 24.783m24.81-33.366c-6.899 11.52-12.651 23.982-17.731 36.406m30.108-16.416c-7.922 4.68-16.974 14.599-23.789 21.226" stroke="#fff" stroke-width="2.724" stroke-miterlimit="1.5" stroke-linecap="round" stroke-linejoin="round"/><rect opacity=".7" x="487.62" y="171.38" width="50.393" height="93.975" rx="13.62" transform="rotate(-15 487.62 171.38)" fill="#2FDBBC"/><rect opacity=".7" x="494.292" y="175.232" width="14.189" height="21.034" rx="7.094" transform="rotate(-15 494.292 175.232)" fill="#2FDBBC"/><path d="M529.369 202.961c-1.495-6.678-28.13-7.248-36.301 6.087-8.172 13.335-3.877 33.918 9.743 38.129 13.619 4.211 29.963-.702 30.644-7.018.545-5.053-11.105-4.441-17.234-4.441 6.81-.702 18.386-.472 17.234-6.087-1.153-5.614-14.301-3.977-20.43-3.509 7.264-1.17 21.582-1.634 20.43-8.422-1.153-6.788-14.964-4.207-22.001-3.037 7.718-2.106 19.749-3.51 17.915-11.702z" fill="#BE7FEF" stroke="#000" stroke-width="2.724" stroke-linecap="round" stroke-linejoin="round"/></svg>