<svg width="343" height="395" fill="none" xmlns="http://www.w3.org/2000/svg"><g clip-path="url(#clip0_1_9013)"><rect width="343" height="395" rx="20" fill="#F5F5F5"/><path opacity=".7" d="M224.396 267.017v46.379" stroke="#A64CED" stroke-width="111.31" stroke-linecap="round"/><path d="M241.556 258.669c-1.391 5.565-10.667 12.522-17.624 12.522" stroke="#000" stroke-width="1.855" stroke-linecap="round" stroke-linejoin="round"/><path d="M257.537 289.743c-1.701 6.493-6.957 17.531-14.378 9.739-9.276-9.739-19.015-24.117-28.755-25.044-9.739-.928-15.305 2.319-13.914 6.029.931 2.481 5.177 2.75 9.276 2.61m5.566-.291c-1.538.051-3.533.221-5.566.291m10.204 6.202c-1.855.649-4.174.673-5.566.649m-4.638-6.851c-6.957 1.1-6.029 6.666 4.638 6.851m0 0c-6.493 1.206-4.638 5.844.928 6.815m3.71-.043c-1.458.257-2.694.245-3.71.043m0 0c-3.423 2.247-2.48 5.77 2.319 6.198m3.71-.212c-1.419.25-2.657.306-3.71.212m0 0c10.667 22.978 35.712 32.253 53.8 14.629" stroke="#000" stroke-width="1.855" stroke-linecap="round"/><circle cx="210.019" cy="255.422" r="2.319" fill="#000"/><circle cx="229.498" cy="251.712" r="2.319" fill="#000"/><path d="M222.541 367.196v64.003h-38.959l4.253-3.721a9.276 9.276 0 003.168-6.981v-64.432m35.248 11.131v64.003h38.959l-4.253-3.721a9.276 9.276 0 01-3.168-6.981v-64.432" stroke="#000" stroke-width="1.855" stroke-linecap="round" stroke-linejoin="round"/><path d="M179.277 258.949c-1.034 5.586-1.462 11.253-2.252 16.878m16.898-22.724c-4.699 7.846-8.617 16.333-12.076 24.795m20.506-11.181c-5.396 3.188-11.561 9.943-16.203 14.457" stroke="#fff" stroke-width="1.855" stroke-miterlimit="1.5" stroke-linecap="round" stroke-linejoin="round"/><rect opacity=".7" x="150.189" y="285.176" width="34.321" height="64.003" rx="9.276" transform="rotate(-15 150.189 285.176)" fill="#2FDBBC"/><rect opacity=".7" x="154.734" y="287.799" width="9.663" height="14.326" rx="4.832" transform="rotate(-15 154.734 287.799)" fill="#2FDBBC"/><path d="M178.623 306.685c-1.018-4.549-19.158-4.937-24.723 4.145-5.566 9.082-2.641 23.1 6.635 25.968 9.276 2.868 20.407-.478 20.871-4.78.371-3.441-7.563-3.024-11.737-3.024 4.638-.478 12.522-.322 11.737-4.145-.785-3.824-9.74-2.709-13.914-2.39 4.947-.797 14.699-1.113 13.914-5.736-.785-4.624-10.191-2.866-14.984-2.069 5.256-1.434 13.45-2.39 12.201-7.969z" fill="#BE7FEF" stroke="#000" stroke-width="1.855" stroke-linecap="round" stroke-linejoin="round"/></g><defs><clipPath id="clip0_1_9013"><rect width="343" height="395" rx="20" fill="#fff"/></clipPath></defs></svg>