<svg width="343" height="313" fill="none" xmlns="http://www.w3.org/2000/svg"><g clip-path="url(#clip0_1_9000)"><rect width="343" height="313" rx="20" fill="#F5F5F5"/><path opacity=".7" d="M271.231 311.673h26.616" stroke="#2FDBBC" stroke-width="159.698" stroke-linecap="round"/><path d="M303.382 277.009c-1.366 4.503-11.342 9.836-17.474 6.833" stroke="#000" stroke-width="2.662" stroke-linecap="round" stroke-linejoin="round"/><circle cx="267.904" cy="272.414" r="3.327" fill="#000"/><circle cx="295.851" cy="267.09" r="3.327" fill="#000"/><path d="M162.743 269.763c20.378.035 19.799 13.806-2.446 8.509 6.511 1.817 16.416 3.899 13.381 9.002-3.036 5.102-14.732-.336-14.732-.336 8.258 4.504 10.415 7.913 7.566 10.385-1.246 1.08-3.372 1.504-5.84 1.307m58.632-2.293c-26.634 12.801-33.152-7.179-35.239-16.78-2.088-9.601 5.165-37.19-4.088-38.573-7.442-1.112-9.757 8.317-9.175 23.065-4.107-1.916-22.552-1.897-26.652 14.349-3.135 12.422 8.503 19.595 16.522 20.232m53.919 30.819c-23.414 5.067-45.273-2.711-53.919-30.819" stroke="#000" stroke-width="2.662" stroke-linecap="round" stroke-linejoin="round"/></g><defs><clipPath id="clip0_1_9000"><rect width="343" height="313" rx="20" fill="#fff"/></clipPath></defs></svg>