<svg width="90" height="90" fill="none" xmlns="http://www.w3.org/2000/svg"><rect width="90" height="90" rx="45" fill="#954CED"/><g clip-path="url(#clip0_1_8460)" fill="#fff"><path d="M45.27 26.711c6.048 0 6.765.027 9.143.133 2.21.097 3.404.469 4.2.778 1.052.407 1.813.902 2.6 1.689.795.796 1.282 1.547 1.688 2.6.31.795.681 1.998.778 4.2.106 2.387.133 3.103.133 9.142 0 6.048-.026 6.764-.133 9.142-.097 2.21-.468 3.405-.778 4.2-.406 1.053-.902 1.813-1.689 2.6-.795.796-1.547 1.282-2.599 1.689-.796.31-1.998.68-4.2.778-2.387.106-3.103.132-9.142.132-6.048 0-6.764-.026-9.143-.132-2.21-.097-3.404-.469-4.2-.778-1.052-.407-1.813-.902-2.6-1.69-.795-.795-1.281-1.546-1.688-2.599-.31-.795-.681-1.998-.778-4.2-.106-2.387-.133-3.103-.133-9.142 0-6.048.027-6.764.133-9.143.097-2.21.468-3.404.778-4.2.407-1.052.902-1.812 1.689-2.599.795-.796 1.547-1.282 2.6-1.689.795-.31 1.997-.68 4.199-.778 2.379-.106 3.095-.133 9.142-.133zm0-4.076c-6.145 0-6.914.027-9.328.133-2.405.106-4.058.495-5.49 1.052-1.495.584-2.76 1.353-4.015 2.617-1.264 1.256-2.033 2.52-2.617 4.006-.557 1.441-.946 3.086-1.052 5.49-.106 2.423-.133 3.193-.133 9.338s.027 6.914.133 9.328c.106 2.405.495 4.058 1.052 5.49.584 1.495 1.353 2.76 2.617 4.015a11.064 11.064 0 004.006 2.608c1.44.557 3.085.946 5.49 1.052 2.414.107 3.184.133 9.329.133 6.145 0 6.914-.026 9.328-.133 2.405-.106 4.058-.495 5.49-1.052a11.064 11.064 0 004.006-2.608 11.064 11.064 0 002.609-4.005c.556-1.442.946-3.086 1.052-5.491.106-2.414.132-3.183.132-9.328 0-6.146-.026-6.915-.132-9.329-.106-2.405-.496-4.058-1.052-5.49-.557-1.504-1.327-2.768-2.591-4.024a11.064 11.064 0 00-4.006-2.608c-1.44-.557-3.085-.946-5.49-1.052-2.423-.115-3.192-.142-9.337-.142z"/><path d="M45.27 33.644c-6.419 0-11.626 5.207-11.626 11.627 0 6.419 5.207 11.627 11.627 11.627 6.419 0 11.627-5.208 11.627-11.627 0-6.42-5.208-11.627-11.627-11.627zm0 19.169a7.543 7.543 0 010-15.085 7.543 7.543 0 010 15.085zm14.802-19.629a2.715 2.715 0 11-2.715-2.715 2.72 2.72 0 012.715 2.715z"/></g><defs><clipPath id="clip0_1_8460"><path fill="#fff" transform="translate(22.635 22.635)" d="M0 0h45.271v45.271H0z"/></clipPath></defs></svg>