<svg width="297" height="232" fill="none" xmlns="http://www.w3.org/2000/svg"><path opacity=".7" d="M141.606 95.79h24.556" stroke="#A64CED" stroke-width="147.601" stroke-linecap="round"/><path d="M171.268 63.751c-1.26 4.162-10.463 9.09-16.121 6.315" stroke="#000" stroke-width="2" stroke-linecap="round" stroke-linejoin="round"/><ellipse cx="138.537" cy="59.504" rx="3.069" ry="3.075" fill="#000"/><ellipse cx="164.32" cy="54.584" rx="3.069" ry="3.075" fill="#000"/><path d="M154 167.374L141.062 229H98l6.268-5.29a12.3 12.3 0 004.241-7.647L115.86 165m38.14 2.374V229h43l-4.955-4.189a12.3 12.3 0 01-4.313-10.475L192.086 165M41.518 57.054c18.8.033 18.266 12.76-2.257 7.864 6.007 1.68 15.145 3.604 12.345 8.32-2.8 4.716-13.59-.31-13.59-.31 7.618 4.162 9.607 7.313 6.978 9.598-1.149.999-3.11 1.39-5.387 1.209m54.093-2.12c-24.573 11.83-30.585-6.635-32.511-15.51-1.926-8.873 4.765-34.372-3.772-35.65-6.865-1.028-9.001 7.687-8.465 21.318-3.788-1.771-20.805-1.753-24.588 13.262-2.892 11.481 7.845 18.11 15.243 18.7m49.744 28.484c-21.6 4.683-41.767-2.506-49.744-28.484m167.075 29.942c5.816 3.433 9.409 4.266 16.531 3.403-6.212 3.797-9.002 6.101-12.258 10.636m7.515-52.443c12.952 3.735 38.732 15.844 38.233 34.404-.347 12.892-9.714 21.842-18.597 27.068m-23.937 14.59c5.466 4.286 17.854 11.054 23.678 3.843 2.219-2.747 2.096-5.16.77-7.181m-.511-11.252c-3.904 2.298-7.715 3.876-10.626 4.753 3.642.963 8.98 3.214 11.137 6.499m-.511-11.252c6.54 2.41 5.165 9.673.511 11.252" stroke="#000" stroke-width="2" stroke-linecap="round" stroke-linejoin="round"/></svg>