<svg width="90" height="90" fill="none" xmlns="http://www.w3.org/2000/svg"><rect width="90" height="90" rx="45" fill="#954CED"/><g clip-path="url(#clip0_1_8462)"><path d="M54.839 22.635h-7.63v30.837c0 3.674-2.934 6.692-6.586 6.692-3.651 0-6.586-3.018-6.586-6.692 0-3.609 2.87-6.561 6.39-6.692v-7.742c-7.76.13-14.02 6.495-14.02 14.434 0 8.004 6.391 14.434 14.281 14.434 7.89 0 14.281-6.495 14.281-14.434V37.66c2.87 2.1 6.39 3.346 10.107 3.412V33.33c-5.738-.197-10.237-4.921-10.237-10.695z" fill="#fff"/></g><defs><clipPath id="clip0_1_8462"><path fill="#fff" transform="translate(22.635 22.635)" d="M0 0h45.271v45.271H0z"/></clipPath></defs></svg>