<svg width="90" height="90" fill="none" xmlns="http://www.w3.org/2000/svg"><rect width="90" height="90" rx="45" fill="#954CED"/><g clip-path="url(#clip0_1_8458)"><path d="M36.872 63.663c17.083 0 26.427-14.153 26.427-26.427 0-.402 0-.802-.027-1.2a18.897 18.897 0 004.634-4.808 18.512 18.512 0 01-5.335 1.461 9.319 9.319 0 004.084-5.137 18.61 18.61 0 01-5.898 2.254 9.297 9.297 0 00-15.829 8.471 26.37 26.37 0 01-19.142-9.704 9.295 9.295 0 002.876 12.399 9.206 9.206 0 01-4.216-1.163v.118a9.291 9.291 0 007.452 9.105 9.27 9.27 0 01-4.194.159 9.301 9.301 0 008.677 6.45 18.633 18.633 0 01-13.746 3.85 26.297 26.297 0 0014.237 4.165" fill="#fff"/></g><defs><clipPath id="clip0_1_8458"><path fill="#fff" transform="translate(22.635 22.635)" d="M0 0h45.271v45.271H0z"/></clipPath></defs></svg>